<svg width="24" height="24" viewBox="0 0 24 24" fill="none" xmlns="http://www.w3.org/2000/svg">
<path fill-rule="evenodd" clip-rule="evenodd" d="M3 7.5C3 5.567 4.567 4 6.5 4H17.5C19.433 4 21 5.567 21 7.5V16.5C21 18.433 19.433 20 17.5 20H6.5C4.567 20 3 18.433 3 16.5V7.5ZM5.86547 8.60017C6.08629 8.24972 6.54939 8.14464 6.89983 8.36547L11.0798 10.9994C11.6217 11.3333 12.4125 11.3335 12.9547 11.0001L17.0977 8.36702C17.4473 8.14484 17.9108 8.24813 18.133 8.59772C18.3552 8.9473 18.2519 9.41081 17.9023 9.63298L13.755 12.2687L13.7475 12.2735L13.7474 12.2735C12.7207 12.9088 11.3149 12.9088 10.2882 12.2735L10.283 12.2703L10.283 12.2702L6.10017 9.63453C5.74972 9.41371 5.64464 8.95061 5.86547 8.60017Z" fill="#F3C74C"/>
</svg>
