<svg width="30" height="30" viewBox="0 0 30 30" fill="none" xmlns="http://www.w3.org/2000/svg">
<path fill-rule="evenodd" clip-rule="evenodd" d="M0 15C0 26.2492 3.75081 30 15 30C26.2492 30 30 26.2492 30 15C30 3.75081 26.2492 0 15 0C3.75081 0 0 3.75081 0 15Z" fill="#F28022"/>
<path fill-rule="evenodd" clip-rule="evenodd" d="M22.3291 12.8567C22.441 12.9977 22.5 13.1699 22.5 13.3499V18.9999C22.5 20.1045 21.607 20.9999 20.5024 20.9999H12.5044C11.3998 20.9999 10.5 20.1045 10.5 18.9999L10.5 8C10.5 6.89543 11.3954 6 12.5 6H16.3308C16.552 6 16.7617 6.0889 16.9096 6.25338C18.3608 7.86735 21.5559 11.8819 22.3291 12.8567ZM9 9.74994C9 9.33573 8.66421 8.99994 8.25 8.99994C7.83579 8.99994 7.5 9.33573 7.5 9.74994V21.2499C7.5 22.7687 8.73122 23.9999 10.25 23.9999H17.25C17.6642 23.9999 18 23.6642 18 23.2499C18 22.8357 17.6642 22.4999 17.25 22.4999H10.25C9.55964 22.4999 9 21.9403 9 21.2499V9.74994Z" fill="white"/>
</svg>
