<svg width="56" height="56" viewBox="0 0 56 56" fill="none" xmlns="http://www.w3.org/2000/svg">
<g filter="url(#filter0_d_2635_5055)">
<path fill-rule="evenodd" clip-rule="evenodd" d="M12 26C12 37.9991 16.0009 42 28 42C39.9991 42 44 37.9991 44 26C44 14.0009 39.9991 10 28 10C16.0009 10 12 14.0009 12 26Z" fill="white"/>
</g>
<path fill-rule="evenodd" clip-rule="evenodd" d="M33.44 20.2364C33.48 20.3063 33.55 20.3563 33.64 20.3563C36.04 20.3563 37 22.3141 37 24.7114V30.6448C37 33.0422 36.04 34 33.64 34H22.36C19.95 34 19 33.0422 19 30.6448V24.7114C19 22.3141 19.95 20.3563 22.36 20.3563C22.44 20.3563 22.52 20.3163 22.55 20.2364L22.61 20.1165C22.6445 20.044 22.6798 19.9695 22.7158 19.8938C22.9716 19.355 23.2546 18.7588 23.43 18.4084C23.6244 18.0201 24.6119 18.0102 25.5577 18.0008C25.5851 18.0006 25.6126 18.0003 25.64 18H30.35C31.32 18.01 32.38 18.0289 32.57 18.4084C32.7275 18.7231 32.9674 19.2299 33.1987 19.7184C33.2465 19.8192 33.2938 19.9192 33.34 20.0166L33.44 20.2364ZM32.71 24.0721C32.71 24.5715 33.11 24.9711 33.61 24.9711C34.11 24.9711 34.52 24.5715 34.52 24.0721C34.52 23.5726 34.11 23.1631 33.61 23.1631C33.11 23.1631 32.71 23.5726 32.71 24.0721ZM26.27 25.6204C26.74 25.1509 27.35 24.9012 28 24.9012C28.65 24.9012 29.26 25.1509 29.72 25.6104C30.18 26.0699 30.43 26.6792 30.43 27.3285C30.42 28.667 29.34 29.7558 28 29.7558C27.35 29.7558 26.74 29.506 26.28 29.0465C25.82 28.5871 25.57 27.9777 25.57 27.3285V27.3185C25.56 26.6892 25.81 26.0798 26.27 25.6204ZM30.77 30.1054C30.06 30.8146 29.08 31.2541 28 31.2541C26.95 31.2541 25.97 30.8446 25.22 30.1054C24.48 29.3562 24.07 28.3773 24.07 27.3285C24.06 26.2896 24.47 25.3107 25.21 24.5615C25.96 23.8124 26.95 23.4028 28 23.4028C29.05 23.4028 30.04 23.8124 30.78 24.5515C31.52 25.3007 31.93 26.2896 31.93 27.3285C31.92 28.4172 31.48 29.3962 30.77 30.1054Z" fill="#F3C74C"/>
<defs>
<filter id="filter0_d_2635_5055" x="0" y="0" width="56" height="56" filterUnits="userSpaceOnUse" color-interpolation-filters="sRGB">
<feFlood flood-opacity="0" result="BackgroundImageFix"/>
<feColorMatrix in="SourceAlpha" type="matrix" values="0 0 0 0 0 0 0 0 0 0 0 0 0 0 0 0 0 0 127 0" result="hardAlpha"/>
<feOffset dy="2"/>
<feGaussianBlur stdDeviation="6"/>
<feComposite in2="hardAlpha" operator="out"/>
<feColorMatrix type="matrix" values="0 0 0 0 0 0 0 0 0 0 0 0 0 0 0 0 0 0 0.08 0"/>
<feBlend mode="normal" in2="BackgroundImageFix" result="effect1_dropShadow_2635_5055"/>
<feBlend mode="normal" in="SourceGraphic" in2="effect1_dropShadow_2635_5055" result="shape"/>
</filter>
</defs>
</svg>
