<svg width="30" height="30" viewBox="0 0 30 30" fill="none" xmlns="http://www.w3.org/2000/svg">
<path fill-rule="evenodd" clip-rule="evenodd" d="M0 15C0 26.2492 3.75081 30 15 30C26.2492 30 30 26.2492 30 15C30 3.75081 26.2492 0 15 0C3.75081 0 0 3.75081 0 15Z" fill="#F28022"/>
<rect x="6" y="6" width="18" height="18" rx="4" fill="#F28022"/>
<g clip-path="url(#clip0_1242_18415)">
<path d="M13.4579 24.0002V16.821H11.8496V14.2361H13.4579V12.0283C13.4579 10.2934 14.4078 8.7002 16.5968 8.7002C17.4831 8.7002 18.1385 8.80049 18.1385 8.80049L18.0869 11.2143C18.0869 11.2143 17.4185 11.2066 16.6891 11.2066C15.8997 11.2066 15.7733 11.636 15.7733 12.3487V14.2361H18.1496L18.0462 16.821H15.7733V24.0002H13.4579Z" fill="white"/>
</g>
<defs>
<clipPath id="clip0_1242_18415">
<rect width="6.3" height="15.3" fill="white" transform="translate(11.8496 8.7002)"/>
</clipPath>
</defs>
</svg>
