<svg width="24" height="24" viewBox="0 0 24 24" fill="none" xmlns="http://www.w3.org/2000/svg">
<path fill-rule="evenodd" clip-rule="evenodd" d="M11.5 5C11.5 5.25361 11.4056 5.48517 11.25 5.66146V6.14441L13.1537 6.14503L17.3453 6.14637L18.6028 6.14679C18.9047 6.14689 19.1596 6.32617 19.2501 6.60196C19.3406 6.87775 19.2491 7.19649 19.0178 7.41121L17.3099 8.99622L19.0505 10.6678C19.2641 10.873 19.3136 11.2 19.1749 11.4894C19.0362 11.7789 18.7381 11.9705 18.4261 11.9709L11.25 11.9795V17.3334C11.25 17.7476 10.9142 18.0834 10.5 18.0834C10.0858 18.0834 9.75 17.7476 9.75 17.3334L9.75 5.66146C9.59441 5.48517 9.5 5.25361 9.5 5C9.5 4.44772 9.94772 4 10.5 4C11.0523 4 11.5 4.44772 11.5 5ZM14.0102 15.9503C13.7066 15.6685 13.2321 15.6862 12.9503 15.9898C12.6685 16.2934 12.6862 16.7679 12.9898 17.0497C13.195 17.2402 13.25 17.3658 13.25 17.5663C13.25 17.9241 13.0423 18.3268 12.5467 18.6714C12.0538 19.0141 11.3326 19.25 10.5 19.25C9.66745 19.25 8.94615 19.0141 8.4533 18.6714C7.95775 18.3268 7.75 17.9241 7.75 17.5663C7.75 17.4052 7.81754 17.184 7.93515 17.0056C8.16315 16.6598 8.06764 16.1946 7.72182 15.9666C7.376 15.7386 6.91084 15.8341 6.68284 16.1799C6.42935 16.5644 6.25 17.0683 6.25 17.5663C6.25 18.5525 6.82576 19.3667 7.59695 19.9029C8.37085 20.4411 9.39956 20.75 10.5 20.75C11.6004 20.75 12.6291 20.4411 13.403 19.9029C14.1742 19.3667 14.75 18.5525 14.75 17.5663C14.75 16.8491 14.4398 16.349 14.0102 15.9503Z" fill="#A49F9B"/>
</svg>
