<svg width="30" height="30" viewBox="0 0 30 30" fill="none" xmlns="http://www.w3.org/2000/svg">
<circle cx="15" cy="15" r="15" fill="#101010"/>
<path fill-rule="evenodd" clip-rule="evenodd" d="M14.5 8C14.5 8.25361 14.4056 8.48517 14.25 8.66146V9.14441L16.1537 9.14503L20.3453 9.14637L21.6028 9.14679C21.9047 9.14689 22.1596 9.32617 22.2501 9.60196C22.3406 9.87775 22.2491 10.1965 22.0178 10.4112L20.3099 11.9962L22.0505 13.6678C22.2641 13.873 22.3136 14.2 22.1749 14.4894C22.0362 14.7789 21.7381 14.9705 21.4261 14.9709L14.25 14.9795V20.3334C14.25 20.7476 13.9142 21.0834 13.5 21.0834C13.0858 21.0834 12.75 20.7476 12.75 20.3334L12.75 8.66146C12.5944 8.48517 12.5 8.25361 12.5 8C12.5 7.44772 12.9477 7 13.5 7C14.0523 7 14.5 7.44772 14.5 8ZM17.0102 18.9503C16.7066 18.6685 16.2321 18.6862 15.9503 18.9898C15.6685 19.2934 15.6862 19.7679 15.9898 20.0497C16.195 20.2402 16.25 20.3658 16.25 20.5663C16.25 20.9241 16.0423 21.3268 15.5467 21.6714C15.0538 22.0141 14.3326 22.25 13.5 22.25C12.6674 22.25 11.9462 22.0141 11.4533 21.6714C10.9577 21.3268 10.75 20.9241 10.75 20.5663C10.75 20.4052 10.8175 20.184 10.9352 20.0056C11.1631 19.6598 11.0676 19.1946 10.7218 18.9666C10.376 18.7386 9.91084 18.8341 9.68284 19.1799C9.42935 19.5644 9.25 20.0683 9.25 20.5663C9.25 21.5525 9.82576 22.3667 10.597 22.9029C11.3709 23.4411 12.3996 23.75 13.5 23.75C14.6004 23.75 15.6291 23.4411 16.403 22.9029C17.1742 22.3667 17.75 21.5525 17.75 20.5663C17.75 19.8491 17.4398 19.349 17.0102 18.9503Z" fill="white"/>
</svg>
