<svg width="30" height="30" viewBox="0 0 30 30" fill="none" xmlns="http://www.w3.org/2000/svg">
    <circle cx="15" cy="15" r="15" fill="#101010"/>
    <path fill-rule="evenodd" clip-rule="evenodd" d="M14.4326 20.898L14.431 20.8969L14.4273 20.8943L14.4146 20.8852C14.4039 20.8775 14.3887 20.8664 14.3691 20.852C14.3301 20.8233 14.2741 20.7816 14.2035 20.7274C14.0623 20.6191 13.8625 20.4611 13.6236 20.2591C13.1467 19.8558 12.5093 19.2732 11.8701 18.5567C10.6144 17.1491 9.25 15.1124 9.25 12.8364C9.25 11.2898 9.82851 9.80578 10.8595 8.71093C11.8907 7.61593 13.29 7 14.75 7C16.21 7 17.6093 7.61593 18.6405 8.71093C19.6715 9.80578 20.25 11.2898 20.25 12.8364C20.25 15.1124 18.8856 17.1491 17.6299 18.5567C16.9907 19.2732 16.3533 19.8558 15.8764 20.2591C15.6375 20.4611 15.4377 20.6191 15.2965 20.7274C15.2259 20.7816 15.1699 20.8233 15.1309 20.852C15.1113 20.8664 15.0961 20.8775 15.0854 20.8852L15.0727 20.8943L15.069 20.8969L15.0679 20.8978L14.4326 20.898ZM15.0671 20.8983L14.4326 20.898C14.6244 21.0338 14.8753 21.0341 15.0671 20.8983ZM17.6376 11.9883C17.6352 12.1323 17.6239 12.276 17.6038 12.4185C17.5838 12.5829 17.5546 12.746 17.5162 12.907H14.1336C14.1271 12.9347 14.1238 12.9631 14.124 12.9916C14.1213 13.1158 14.1515 13.2386 14.2116 13.3473C14.2716 13.4505 14.3525 13.54 14.4491 13.6102C14.5488 13.6842 14.6608 13.7403 14.7798 13.7758C14.9042 13.8144 15.0338 13.8337 15.1641 13.8332C15.3826 13.8385 15.5995 13.7936 15.798 13.7017C15.9835 13.6128 16.1513 13.4911 16.2935 13.3425L17.2494 14.0908C16.9697 14.3974 16.6229 14.6352 16.2361 14.7856C15.8521 14.9308 15.4445 15.0034 15.0339 14.9998C14.7236 15.0032 14.4146 14.957 14.1187 14.8631C13.8494 14.7784 13.5999 14.6402 13.3854 14.4566C13.1739 14.2726 13.0057 14.0442 12.8929 13.7876C12.7719 13.5091 12.7104 13.2085 12.7124 12.9048H12.5074C12.3863 12.7967 12.2764 12.6766 12.1793 12.5465C11.99 12.3016 12.0001 11.9774 12.0001 11.9774H14.237H16.2834C16.2898 11.9467 16.2932 11.9154 16.2935 11.8841V11.7894C16.2952 11.692 16.2761 11.5954 16.2375 11.5059C16.1989 11.4165 16.1417 11.3363 16.0696 11.2707C15.9215 11.1314 15.7077 11.0631 15.4304 11.0631C15.2731 11.06 15.1169 11.0899 14.9717 11.1507C14.8424 11.2061 14.7224 11.2812 14.616 11.3732C14.4373 11.5288 14.3074 11.7327 14.2419 11.9603C13.7643 11.9305 13.2298 11.8481 12.9092 11.7938C12.9141 11.7789 12.9199 11.7642 12.9267 11.75C13.0606 11.4089 13.2599 11.0973 13.5133 10.8326C13.7674 10.5704 14.0724 10.3629 14.4096 10.2228C14.7717 10.0712 15.161 9.99541 15.5535 10.0002C15.8416 9.99641 16.1283 10.0408 16.4017 10.1317C16.6449 10.2129 16.8687 10.3437 17.0588 10.5159C17.2456 10.6882 17.3914 10.9002 17.4855 11.1362C17.591 11.4075 17.6425 11.6968 17.6371 11.9879L17.6376 11.9883ZM10.2047 20.0962C10.5445 20.2871 10.6782 20.7033 10.5237 21.0527C10.628 21.1682 10.8906 21.3477 11.3884 21.5229C11.8737 21.6938 12.4968 21.8307 13.2098 21.9134C13.9203 21.9958 14.6831 22.0202 15.4318 21.9835C16.1813 21.9468 16.8833 21.8506 17.4786 21.7074C18.0827 21.562 18.5195 21.382 18.7844 21.2085C18.9149 21.123 18.9763 21.0569 19.0003 21.0234L19.0012 21.0222C19.0228 20.6274 19.3498 20.3139 19.75 20.3139C20.1643 20.3139 20.5 20.6497 20.5 21.0639C20.5 21.713 20.047 22.1746 19.6062 22.4633C19.1419 22.7674 18.5219 22.9992 17.8295 23.1658C17.1284 23.3345 16.3317 23.4413 15.5051 23.4817C14.6776 23.5223 13.8324 23.4957 13.0369 23.4034C12.244 23.3114 11.5066 23.1548 10.8902 22.9378C10.2929 22.7275 9.74483 22.4384 9.39332 22.0388C9.20955 21.8298 9.06106 21.569 9.01475 21.2605C8.96724 20.944 9.03739 20.643 9.18347 20.3829C9.3863 20.0217 9.84351 19.8934 10.2047 20.0962Z" fill="white"/>
</svg>
