<svg width="40" height="40" viewBox="0 0 40 40" fill="none" xmlns="http://www.w3.org/2000/svg">
<path fill-rule="evenodd" clip-rule="evenodd" d="M0 20C0 34.9989 5.00108 40 20 40C34.9989 40 40 34.9989 40 20C40 5.00108 34.9989 0 20 0C5.00108 0 0 5.00108 0 20Z" fill="#FFF1E5"/>
<path fill-rule="evenodd" clip-rule="evenodd" d="M15.7887 19.0824L15.4566 16.17C15.4175 15.8267 15.4175 15.4802 15.4566 15.1369L15.4787 14.9436C15.7124 12.8935 17.3662 11.2714 19.4684 11.0304C19.8216 10.9899 20.1783 10.9899 20.5315 11.0304C22.6337 11.2714 24.2875 12.8935 24.5212 14.9436L24.5433 15.1369C24.5824 15.4802 24.5824 15.8267 24.5433 16.17L24.2112 19.0824L24.8833 19.1347C25.8204 19.2076 26.5855 19.8941 26.7374 20.7981C27.0875 22.8817 27.0875 25.0069 26.7374 27.0905C26.5855 27.9946 25.8204 28.681 24.8833 28.7539L23.4351 28.8666C21.1487 29.0445 18.8513 29.0445 16.5649 28.8666L15.1167 28.7539C14.1796 28.681 13.4145 27.9946 13.2626 27.0905C12.9125 25.0069 12.9125 22.8817 13.2626 20.7981C13.4145 19.8941 14.1796 19.2076 15.1167 19.1347L15.7887 19.0824ZM19.6381 12.4356C19.8785 12.408 20.1214 12.408 20.3618 12.4356C21.7931 12.5997 22.9191 13.7041 23.0782 15.0998L23.1002 15.2931C23.1275 15.5326 23.1275 15.7743 23.1002 16.0138L22.7626 18.9749C20.9227 18.8599 19.0772 18.8599 17.2373 18.9749L16.8997 16.0138C16.8724 15.7743 16.8724 15.5326 16.8997 15.2931L16.9217 15.0998C17.0808 13.7041 18.2068 12.5997 19.6381 12.4356ZM20 25C20.8284 25 21.5 24.3284 21.5 23.5C21.5 22.6716 20.8284 22 20 22C19.1716 22 18.5 22.6716 18.5 23.5C18.5 24.3284 19.1716 25 20 25Z" fill="#F28022"/>
</svg>
