<svg width="24" height="24" viewBox="0 0 24 24" fill="none" xmlns="http://www.w3.org/2000/svg">
<path fill-rule="evenodd" clip-rule="evenodd" d="M11.431 17.8969L11.4326 17.898C11.6244 18.0338 11.8753 18.0341 12.0671 17.8983L11.4326 17.898L12.0679 17.8978L12.069 17.8969L12.0727 17.8943L12.0854 17.8852C12.0961 17.8775 12.1113 17.8664 12.1309 17.852C12.1699 17.8233 12.2259 17.7816 12.2965 17.7274C12.4377 17.6191 12.6375 17.4611 12.8764 17.2591C13.3533 16.8558 13.9907 16.2732 14.6299 15.5567C15.8856 14.1491 17.25 12.1124 17.25 9.83641C17.25 8.28984 16.6715 6.80578 15.6405 5.71093C14.6093 4.61593 13.21 4 11.75 4C10.29 4 8.89065 4.61593 7.85951 5.71093C6.82851 6.80578 6.25 8.28984 6.25 9.83641C6.25 12.1124 7.61438 14.1491 8.87008 15.5567C9.50933 16.2732 10.1467 16.8558 10.6236 17.2591C10.8625 17.4611 11.0623 17.6191 11.2035 17.7274C11.2741 17.7816 11.3301 17.8233 11.3691 17.852C11.3887 17.8664 11.4039 17.8775 11.4146 17.8852L11.4273 17.8943L11.431 17.8969ZM8.02141 8.07324C8.02141 8.08289 8.02414 8.09237 8.02933 8.1007L11.0195 12.9634L11.6842 11.8912L9.2853 8.01831H8.08016C8.06984 8.01823 8.05969 8.02073 8.05075 8.02556C8.04181 8.03039 8.03442 8.03737 8.02933 8.04577C8.02414 8.05411 8.02141 8.06359 8.02141 8.07324ZM9.27402 8.03662L11.6616 11.8912L11.02 12.9268L8.04464 8.09155C8.0412 8.08598 8.0394 8.07967 8.0394 8.07324C8.0394 8.06681 8.0412 8.0605 8.04464 8.05493C8.04808 8.04934 8.05304 8.0447 8.05902 8.04149C8.06499 8.03827 8.07177 8.03659 8.07866 8.03662H9.27402ZM9.29631 8H8.07866C8.0649 7.99995 8.05138 8.00329 8.03944 8.0097C8.02751 8.01611 8.0176 8.02535 8.01069 8.03649C8.00379 8.04763 8.00015 8.06028 8.00014 8.07317C8.00013 8.08605 8.00374 8.0987 8.01062 8.10986L11.0215 13L11.7089 11.8912L9.29631 8ZM10.3774 8.07323C10.3774 8.08287 10.3801 8.09235 10.3853 8.1007L13.3774 12.9634L14.0421 11.8912L11.6428 8.01831H10.4361C10.4258 8.0183 10.4157 8.02084 10.4068 8.02566C10.3978 8.03047 10.3904 8.03741 10.3853 8.04576C10.3801 8.05411 10.3774 8.06358 10.3774 8.07323ZM11.6315 8.03662L14.0195 11.8912L13.3774 12.9268L10.4025 8.09155C10.399 8.08598 10.3972 8.07967 10.3972 8.07324C10.3972 8.06681 10.399 8.0605 10.4025 8.05493C10.4059 8.04939 10.4108 8.04479 10.4167 8.04158C10.4226 8.03837 10.4293 8.03666 10.4361 8.03662H11.6315ZM11.6541 8H10.4361C10.4224 8.00001 10.4089 8.00341 10.397 8.00984C10.3851 8.01627 10.3753 8.02552 10.3684 8.03665C10.3616 8.04778 10.358 8.06041 10.358 8.07326C10.358 8.08611 10.3616 8.09873 10.3684 8.10986L13.3793 13L14.0664 11.8912L11.6541 8ZM14.0288 9.0821L13.7211 9.66801L14.3737 10.7424L15.9726 8.10217C15.9778 8.0939 15.9806 8.08448 15.9806 8.07489C15.9806 8.06529 15.9778 8.05587 15.9726 8.04761C15.9675 8.03925 15.9601 8.03231 15.9511 8.02749C15.9422 8.02267 15.9321 8.02013 15.9218 8.02014H12.6868L13.3449 9.0821H14.0288ZM15.9218 8.03662C15.9286 8.03666 15.9353 8.03837 15.9412 8.04158C15.9471 8.04479 15.952 8.04939 15.9554 8.05493C15.9589 8.0605 15.9607 8.06681 15.9607 8.07324C15.9607 8.07967 15.9589 8.08598 15.9554 8.09155L14.3733 10.704L13.7426 9.66764L14.0324 9.11506L14.0601 9.06233H13.3563L12.7216 8.03662H15.9218ZM15.9224 8H15.9218H12.6536L13.3344 9.09858H13.9991L13.6992 9.66874L14.3741 10.7776L15.9898 8.10986C15.9967 8.0987 16.0003 8.08605 16.0003 8.07317C16.0003 8.06029 15.9967 8.04764 15.9898 8.03649C15.9829 8.02535 15.9729 8.01611 15.961 8.0097C15.9493 8.00339 15.936 8.00005 15.9224 8ZM7.20466 17.0962C7.54455 17.2871 7.67823 17.7033 7.52372 18.0527C7.62797 18.1682 7.89061 18.3477 8.38836 18.5229C8.87368 18.6938 9.4968 18.8307 10.2098 18.9134C10.9203 18.9958 11.6831 19.0202 12.4318 18.9835C13.1813 18.9468 13.8833 18.8506 14.4786 18.7074C15.0827 18.562 15.5195 18.382 15.7844 18.2085C15.9149 18.123 15.9763 18.0569 16.0003 18.0234L16.0012 18.0222C16.0228 17.6274 16.3498 17.3139 16.75 17.3139C17.1643 17.3139 17.5 17.6497 17.5 18.0639C17.5 18.713 17.047 19.1746 16.6062 19.4633C16.1419 19.7674 15.5219 19.9992 14.8295 20.1658C14.1284 20.3345 13.3317 20.4413 12.5051 20.4817C11.6776 20.5223 10.8324 20.4957 10.0369 20.4034C9.24395 20.3114 8.50661 20.1548 7.89023 19.9378C7.29291 19.7275 6.74483 19.4384 6.39332 19.0388C6.20955 18.8298 6.06106 18.569 6.01475 18.2605C5.96724 17.944 6.03739 17.643 6.18347 17.3829C6.3863 17.0217 6.84351 16.8934 7.20466 17.0962Z" fill="#F3C74C"/>
</svg>
