<svg width="24" height="24" viewBox="0 0 24 24" fill="none" xmlns="http://www.w3.org/2000/svg">
<path fill-rule="evenodd" clip-rule="evenodd" d="M11.4326 17.898L11.431 17.8969L11.4273 17.8943L11.4146 17.8852C11.4039 17.8775 11.3887 17.8664 11.3691 17.852C11.3301 17.8233 11.2741 17.7816 11.2035 17.7274C11.0623 17.6191 10.8625 17.4611 10.6236 17.2591C10.1467 16.8558 9.50933 16.2732 8.87008 15.5567C7.61438 14.1491 6.25 12.1124 6.25 9.83641C6.25 8.28984 6.82851 6.80578 7.85951 5.71093C8.89065 4.61593 10.29 4 11.75 4C13.21 4 14.6093 4.61593 15.6405 5.71093C16.6715 6.80578 17.25 8.28984 17.25 9.83641C17.25 12.1124 15.8856 14.1491 14.6299 15.5567C13.9907 16.2732 13.3533 16.8558 12.8764 17.2591C12.6375 17.4611 12.4377 17.6191 12.2965 17.7274C12.2259 17.7816 12.1699 17.8233 12.1309 17.852C12.1113 17.8664 12.0961 17.8775 12.0854 17.8852L12.0727 17.8943L12.069 17.8969L12.0679 17.8978L11.4326 17.898ZM12.0671 17.8983L11.4326 17.898C11.6244 18.0338 11.8753 18.0341 12.0671 17.8983ZM14.6376 8.98833C14.6352 9.13229 14.6239 9.27597 14.6038 9.41854C14.5838 9.58289 14.5546 9.74597 14.5162 9.90702H11.1336C11.1271 9.93472 11.1238 9.96311 11.124 9.99158C11.1213 10.1158 11.1515 10.2386 11.2116 10.3473C11.2716 10.4505 11.3525 10.54 11.4491 10.6102C11.5488 10.6842 11.6608 10.7403 11.7798 10.7758C11.9042 10.8144 12.0338 10.8337 12.1641 10.8332C12.3826 10.8385 12.5995 10.7936 12.798 10.7017C12.9835 10.6128 13.1513 10.4911 13.2935 10.3425L14.2494 11.0908C13.9697 11.3974 13.6229 11.6352 13.2361 11.7856C12.8521 11.9308 12.4445 12.0034 12.0339 11.9998C11.7236 12.0032 11.4146 11.957 11.1187 11.8631C10.8494 11.7784 10.5999 11.6402 10.3854 11.4566C10.1739 11.2726 10.0057 11.0442 9.89294 10.7876C9.77191 10.5091 9.71043 10.2085 9.71244 9.90483H9.50741C9.38632 9.79665 9.27639 9.6766 9.17928 9.54647C8.99002 9.30157 9.00009 8.97738 9.00009 8.97738H11.237H13.2834C13.2898 8.94667 13.2932 8.91542 13.2935 8.88406V8.78943C13.2952 8.69202 13.2761 8.59536 13.2375 8.50591C13.1989 8.41646 13.1417 8.33628 13.0696 8.27072C12.9215 8.1314 12.7077 8.06306 12.4304 8.06306C12.2731 8.06002 12.1169 8.08986 11.9717 8.15068C11.8424 8.2061 11.7224 8.28117 11.616 8.37323C11.4373 8.5288 11.3074 8.73265 11.2419 8.96029C10.7643 8.9305 10.2298 8.84813 9.90915 8.79381C9.91409 8.77886 9.91994 8.76423 9.92668 8.75C10.0606 8.40893 10.2599 8.0973 10.5133 7.83262C10.7674 7.5704 11.0724 7.36288 11.4096 7.22278C11.7717 7.07115 12.161 6.99541 12.5535 7.00023C12.8416 6.99641 13.1283 7.04084 13.4017 7.13166C13.6449 7.21292 13.8687 7.34375 14.0588 7.51587C14.2456 7.68822 14.3914 7.90018 14.4855 8.13622C14.591 8.40754 14.6425 8.69684 14.6371 8.98789L14.6376 8.98833ZM7.20466 17.0962C7.54455 17.2871 7.67823 17.7033 7.52372 18.0527C7.62797 18.1682 7.89061 18.3477 8.38836 18.5229C8.87368 18.6938 9.4968 18.8307 10.2098 18.9134C10.9203 18.9958 11.6831 19.0202 12.4318 18.9835C13.1813 18.9468 13.8833 18.8506 14.4786 18.7074C15.0827 18.562 15.5195 18.382 15.7844 18.2085C15.9149 18.123 15.9763 18.0569 16.0003 18.0234L16.0012 18.0222C16.0228 17.6274 16.3498 17.3139 16.75 17.3139C17.1643 17.3139 17.5 17.6497 17.5 18.0639C17.5 18.713 17.047 19.1746 16.6062 19.4633C16.1419 19.7674 15.5219 19.9992 14.8295 20.1658C14.1284 20.3345 13.3317 20.4413 12.5051 20.4817C11.6776 20.5223 10.8324 20.4957 10.0369 20.4034C9.24395 20.3114 8.50661 20.1548 7.89023 19.9378C7.29291 19.7275 6.74483 19.4384 6.39332 19.0388C6.20955 18.8298 6.06106 18.569 6.01475 18.2605C5.96724 17.944 6.03739 17.643 6.18347 17.3829C6.3863 17.0217 6.84351 16.8934 7.20466 17.0962Z" fill="#F28022"/>
</svg>
