<svg width="24" height="24" viewBox="0 0 24 24" fill="none" xmlns="http://www.w3.org/2000/svg">
<path fill-rule="evenodd" clip-rule="evenodd" d="M11.4653 18.898L11.4636 18.8969L11.4597 18.8943L11.4464 18.8852C11.4351 18.8775 11.419 18.8664 11.3984 18.852C11.3573 18.8233 11.2982 18.7816 11.2237 18.7274C11.0748 18.6191 10.8641 18.4611 10.6122 18.2591C10.1092 17.8558 9.43714 17.2732 8.76302 16.5567C7.43881 15.1491 6 13.1124 6 10.8364C6 9.28984 6.61007 7.80578 7.69732 6.71093C8.78471 5.61593 10.2604 5 11.8 5C13.3397 5 14.8154 5.61593 15.9028 6.71093C16.99 7.80578 17.6001 9.28984 17.6001 10.8364C17.6001 13.1124 16.1613 15.1491 14.8371 16.5567C14.163 17.2732 13.4908 17.8558 12.9879 18.2591C12.736 18.4611 12.5253 18.6191 12.3764 18.7274C12.3019 18.7816 12.2428 18.8233 12.2017 18.852C12.1811 18.8664 12.165 18.8775 12.1537 18.8852L12.1404 18.8943L12.1365 18.8969L12.1352 18.8978L11.4653 18.898ZM11.4653 18.898C11.6676 19.0338 11.9322 19.0341 12.1345 18.8983L11.4653 18.898ZM9.60003 10.4C9.60003 9.18501 10.585 8.20002 11.8 8.20002C13.0151 8.20002 14.0001 9.18501 14.0001 10.4C14.0001 11.6151 13.0151 12.6001 11.8 12.6001C10.585 12.6001 9.60003 11.6151 9.60003 10.4Z" fill="#F28022"/>
</svg>
