<svg width="225" height="225" viewBox="0 0 225 225" fill="none" xmlns="http://www.w3.org/2000/svg">
<path d="M112.5 177.887C147.174 177.887 175.283 149.778 175.283 115.104C175.283 80.4298 147.174 52.3208 112.5 52.3208C77.8257 52.3208 49.7167 80.4298 49.7167 115.104C49.7167 149.778 77.8257 177.887 112.5 177.887Z" fill="#E9EDF8"/>
<path d="M146.738 174.167H78.198C75.0063 174.167 72.4209 171.579 72.4209 168.39V70.0749C72.4209 66.8833 75.0084 64.2979 78.198 64.2979H146.738C149.929 64.2979 152.515 66.8853 152.515 70.0749V168.39C152.515 171.579 149.929 174.167 146.738 174.167Z" fill="url(#paint0_linear_1510_19499)"/>
<path d="M145.583 68.725H79.6605V164.487H145.583V68.725Z" fill="#F5F5F5"/>
<path d="M145.583 68.725C145.604 106.067 146.811 151.104 142.615 161.075C124.14 162.875 102.506 163.452 79.6584 163.56L88.3439 69.0146L145.583 68.725Z" fill="#E4E4E4"/>
<path d="M139.663 158.058C110.867 162.667 91.6188 162.91 76.0105 161.75C78.0334 140.217 78.8438 104.444 79.6605 68.7291L114.36 68.8062L145.767 70.8791C146.223 107.948 146.273 142.19 139.663 158.058Z" fill="white"/>
<path d="M127.315 64.9625V72.3541H97.6208V64.9625C97.6208 63.7833 98.1 62.7166 98.8708 61.9437C98.9667 61.8479 99.0667 61.7562 99.1729 61.6729C99.9104 61.0604 100.858 60.6937 101.89 60.6937C102.665 60.6937 103.406 60.5166 104.073 60.1958C104.363 60.0562 104.635 59.8916 104.894 59.702C105.742 59.075 106.392 58.1812 106.717 57.1187C107.046 56.0333 107.721 55.125 108.594 54.4937C109.433 53.8895 110.456 53.5416 111.542 53.5416H113.396C114.481 53.5416 115.504 53.8895 116.344 54.4937C117.217 55.125 117.892 56.0333 118.221 57.1187C118.544 58.1812 119.194 59.075 120.044 59.702C120.302 59.8916 120.575 60.0562 120.865 60.1958C121.529 60.5166 122.273 60.6937 123.048 60.6937C124.081 60.6937 125.029 61.0604 125.765 61.6729C126.713 62.4541 127.315 63.6375 127.315 64.9625Z" fill="#B0B9CA"/>
<path d="M129.725 68.725V74.2187H95.2104V68.725H97.6209V72.3541H127.315V68.725H129.725Z" fill="#E4E4E4"/>
<path d="M112.469 60.4771C113.923 60.4771 115.102 59.3559 115.102 57.9729C115.102 56.5899 113.923 55.4688 112.469 55.4688C111.014 55.4688 109.835 56.5899 109.835 57.9729C109.835 59.3559 111.014 60.4771 112.469 60.4771Z" fill="white"/>
<path d="M94.6875 107.881C92.702 106.992 91.2416 105.269 90.7916 103.112C90.6562 102.467 91.0708 101.835 91.7166 101.7C92.3625 101.567 92.9937 101.979 93.1291 102.625C93.602 104.892 95.65 106.025 97.4708 106.142C99.1354 106.25 101.194 105.565 101.975 103.317C102.192 102.694 102.871 102.365 103.494 102.581C104.117 102.798 104.446 103.477 104.229 104.1C103.223 106.994 100.51 108.729 97.3166 108.523C96.375 108.462 95.4875 108.24 94.6875 107.881Z" fill="#B0B9CA"/>
<path d="M125.835 108.325C123.85 107.435 122.39 105.712 121.94 103.556C121.804 102.91 122.219 102.279 122.865 102.144C123.51 102.01 124.142 102.423 124.277 103.069C124.75 105.335 126.798 106.469 128.619 106.585C130.283 106.694 132.342 106.008 133.123 103.76C133.34 103.137 134.019 102.808 134.642 103.025C135.265 103.242 135.594 103.921 135.377 104.544C134.371 107.437 131.658 109.173 128.465 108.967C127.523 108.906 126.635 108.683 125.835 108.325Z" fill="#B0B9CA"/>
<path d="M112.354 124.14C113.886 124.14 115.127 122.898 115.127 121.367C115.127 119.835 113.886 118.594 112.354 118.594C110.823 118.594 109.581 119.835 109.581 121.367C109.581 122.898 110.823 124.14 112.354 124.14Z" fill="#B0B9CA"/>
<path d="M163.244 81.9645C163.238 81.927 163.285 81.7645 163.279 81.7291C163.71 80.4291 164.073 79.6395 164.517 78.4145C164.885 77.4312 165.113 76.2812 165.519 75.2937C165.629 75.0458 166.271 73.6333 166.475 73.2541C167.198 71.8666 167.831 70.4166 168.635 69.0541C168.673 69.0479 168.685 68.8937 168.679 68.8562C168.679 68.8562 168.629 68.7874 168.592 68.7937C168.554 68.7999 168.363 68.7937 168.319 68.7624C166.321 69.1791 164.215 69.4229 162.179 69.6145C161.95 69.6145 161.013 69.7374 160.929 69.252L159.875 64.1812C159.717 63.4791 160.692 63.352 161.096 63.2458L174.373 60.6416C175.254 60.6437 175.3 61.1354 175.744 61.7104C175.75 61.7479 176.01 61.9333 176.025 62.0083C176.613 62.9812 176.667 64.1979 176.844 65.2416C176.933 65.7624 176.679 66.0749 176.45 66.5354C175.84 68.1333 175.392 69.3208 174.596 70.952C172.94 73.3791 172.173 76.3083 170.89 78.902C170.89 78.902 170.896 78.9395 170.902 78.977C170.933 79.1625 171.165 79.1625 171.281 79.1812C171.467 79.15 172.213 79.0229 172.398 78.9916C173.088 78.875 173.763 78.6833 174.433 78.4833C174.773 78.3812 175.113 78.277 175.454 78.177C175.619 78.1291 175.796 78.0541 175.967 78.0333C176.094 78.0166 176.242 78.0312 176.371 78.0375C176.727 78.0583 177.077 78.1645 177.381 78.3479C177.627 78.4958 177.844 78.6916 178.017 78.9229C178.102 79.0375 178.192 79.1645 178.244 79.2979C178.283 79.3979 178.294 79.5125 178.319 79.6166C178.433 80.0875 178.548 80.5604 178.663 81.0312C178.858 81.8396 179.125 82.6604 179.256 83.4791C179.35 84.0646 179.371 84.6791 178.819 85.0604C178.315 85.4083 177.625 85.3833 177.042 85.4395C176.346 85.5062 175.648 85.5666 174.958 85.6833C174.698 85.7271 173.879 85.8666 173.804 85.8791C173.51 85.9291 173.219 86.0187 172.931 86.0875C171.51 86.425 170.09 86.7625 168.669 87.1C168.019 87.2541 167.369 87.4083 166.719 87.5625C166.515 87.6104 166.308 87.6583 166.104 87.7083C165.669 87.8166 165.131 87.6083 164.763 87.3729C164.058 86.925 163.971 86.1854 163.842 85.427C163.835 85.3895 163.627 84.1604 163.55 83.7145C163.498 83.4541 163.294 82.2625 163.244 81.9645Z" fill="url(#paint1_linear_1510_19499)"/>
<path d="M189.863 54.7708C189.871 54.7437 189.954 54.6521 189.96 54.625C190.654 53.8979 191.146 53.4896 191.825 52.8166C192.379 52.2812 192.892 51.5896 193.473 51.0625C193.625 50.9333 194.494 50.1979 194.75 50.0104C195.665 49.3166 196.544 48.5562 197.504 47.9041C197.531 47.9125 197.588 47.8125 197.596 47.7854C197.596 47.7854 197.583 47.725 197.558 47.7166C197.531 47.7083 197.406 47.6458 197.388 47.6104C195.931 47.2583 194.458 46.7562 193.048 46.2437C192.896 46.1708 192.235 45.9583 192.333 45.6104L193.231 41.9166C193.348 41.4021 194.033 41.625 194.335 41.6812L203.96 44.1354C204.544 44.4146 204.421 44.7541 204.533 45.2771C204.525 45.3041 204.642 45.5083 204.625 45.5625C204.708 46.3916 204.36 47.2166 204.15 47.9646C204.044 48.3375 203.779 48.4646 203.481 48.6979C202.573 49.5666 201.902 50.2125 200.86 51.0437C198.998 52.1312 197.567 53.8333 195.9 55.15C195.9 55.15 195.892 55.1771 195.885 55.2041C195.848 55.3375 196 55.4083 196.073 55.4583C196.206 55.4958 196.74 55.6458 196.873 55.6833C197.367 55.8229 197.875 55.9083 198.383 55.9875C198.642 56.027 198.898 56.0646 199.156 56.1062C199.281 56.1271 199.421 56.1333 199.542 56.1729C199.631 56.2021 199.725 56.2583 199.808 56.3041C200.038 56.4291 200.235 56.6104 200.381 56.8291C200.498 57.0041 200.579 57.2041 200.621 57.4104C200.642 57.5125 200.66 57.625 200.654 57.7312C200.648 57.8104 200.621 57.8875 200.604 57.9666C200.531 58.3145 200.458 58.6646 200.385 59.0125C200.26 59.6104 200.179 60.2375 200.008 60.8229C199.885 61.2416 199.706 61.6541 199.221 61.7333C198.777 61.8062 198.327 61.5729 197.923 61.425C197.44 61.25 196.958 61.0708 196.465 60.9312C196.277 60.8791 195.69 60.7125 195.638 60.6979C195.427 60.6396 195.206 60.6062 194.994 60.5604C193.946 60.3375 192.896 60.1125 191.848 59.8896C191.369 59.7875 190.89 59.6854 190.408 59.5833C190.258 59.5521 190.106 59.5166 189.954 59.4875C189.631 59.4229 189.342 59.1146 189.169 58.8437C188.844 58.325 189.017 57.8062 189.171 57.2646C189.179 57.2375 189.427 56.3562 189.517 56.0375C189.563 55.8396 189.802 54.9854 189.863 54.7708Z" fill="url(#paint2_linear_1510_19499)"/>
<path d="M173.379 39.35C173.371 39.3292 173.385 39.2271 173.377 39.2042C173.508 38.3792 173.65 37.8687 173.796 37.0896C173.923 36.4625 173.946 35.7479 174.094 35.1125C174.135 34.9521 174.383 34.0396 174.469 33.7917C174.767 32.8854 175.006 31.9521 175.356 31.0541C175.377 31.0458 175.371 30.9521 175.362 30.9312C175.362 30.9312 175.325 30.8958 175.304 30.9021C175.283 30.9104 175.167 30.925 175.137 30.9104C173.975 31.3562 172.733 31.7104 171.527 32.025C171.39 32.0479 170.837 32.2125 170.74 31.9291L169.608 28.9812C169.444 28.575 170.019 28.4021 170.25 28.2979L177.983 25.4312C178.515 25.3458 178.59 25.6375 178.912 25.9396C178.921 25.9604 179.096 26.0479 179.11 26.0916C179.558 26.6187 179.71 27.3458 179.919 27.9562C180.023 28.2625 179.902 28.4729 179.808 28.7729C179.598 29.7937 179.444 30.5521 179.125 31.6125C178.367 33.2354 178.192 35.0729 177.675 36.7583C177.675 36.7583 177.683 36.7792 177.69 36.8021C177.727 36.9104 177.865 36.8875 177.937 36.8875C178.046 36.85 178.481 36.7 178.592 36.6646C178.996 36.5271 179.383 36.3458 179.767 36.1604C179.96 36.0667 180.156 35.9687 180.35 35.8771C180.444 35.8312 180.544 35.7708 180.644 35.7396C180.719 35.7167 180.808 35.7104 180.887 35.7042C181.104 35.6812 181.325 35.7125 181.527 35.7917C181.69 35.8562 181.84 35.9542 181.965 36.075C182.027 36.1354 182.094 36.2042 182.137 36.2792C182.171 36.3354 182.187 36.4021 182.215 36.4646C182.329 36.7375 182.444 37.0104 182.56 37.2812C182.756 37.7479 182.998 38.2146 183.156 38.6958C183.271 39.0396 183.342 39.4062 183.048 39.6896C182.779 39.9479 182.362 40.0021 182.017 40.0917C181.604 40.2 181.19 40.3042 180.787 40.4437C180.635 40.4958 180.156 40.6604 180.112 40.675C179.942 40.7333 179.775 40.8167 179.606 40.8854C178.785 41.2271 177.962 41.5708 177.142 41.9125C176.767 42.0687 176.39 42.225 176.015 42.3812C175.896 42.4312 175.777 42.4792 175.658 42.5292C175.406 42.6375 175.065 42.5646 174.819 42.4583C174.352 42.2583 174.225 41.8208 174.073 41.3771C174.065 41.3562 173.819 40.6354 173.729 40.375C173.677 40.2229 173.437 39.525 173.379 39.35Z" fill="url(#paint3_linear_1510_19499)"/>
<path d="M48.2312 73.3834C48.2354 73.3709 48.275 73.3271 48.277 73.3146C48.6041 72.973 48.8354 72.7792 49.1562 72.4626C49.4166 72.2105 49.6583 71.8855 49.9333 71.6355C50.0041 71.5751 50.4145 71.2271 50.5354 71.1396C50.9666 70.8126 51.3812 70.4542 51.8333 70.148C51.8458 70.1521 51.8729 70.1042 51.877 70.0917C51.877 70.0917 51.8708 70.0626 51.8583 70.0605C51.8458 70.0563 51.7875 70.0271 51.777 70.0105C51.0895 69.8438 50.3958 69.6084 49.7312 69.3667C49.6583 69.3334 49.3479 69.2313 49.3937 69.0688L49.8166 67.3271C49.8708 67.0855 50.1958 67.1896 50.3375 67.2167L54.8729 68.373C55.1479 68.5042 55.0895 68.6646 55.1416 68.9105C55.1375 68.923 55.1916 69.0188 55.1854 69.0459C55.225 69.4376 55.0604 69.8251 54.9625 70.1771C54.9125 70.3542 54.7875 70.4126 54.6479 70.523C54.2208 70.9313 53.9041 71.2376 53.4125 71.6271C52.5354 72.1396 51.8604 72.9417 51.075 73.5625C51.075 73.5625 51.0708 73.575 51.0687 73.5875C51.052 73.65 51.1229 73.6834 51.1562 73.7084C51.2187 73.725 51.4708 73.798 51.5333 73.8146C51.7666 73.8813 52.0062 73.9209 52.2437 73.9584C52.3645 73.9771 52.4875 73.9938 52.6083 74.0146C52.6666 74.025 52.7333 74.0271 52.7895 74.0459C52.8312 74.0605 52.875 74.0855 52.9145 74.1063C53.0229 74.1646 53.1166 74.25 53.1854 74.3542C53.2395 74.4375 53.2791 74.5313 53.2979 74.6271C53.3083 74.675 53.3166 74.7292 53.3125 74.7771C53.3104 74.8146 53.2958 74.8521 53.2895 74.8875C53.2562 75.0521 53.2208 75.2167 53.1875 75.3813C53.1291 75.6625 53.0895 75.9584 53.0104 76.2355C52.952 76.4334 52.8687 76.6271 52.6395 76.6646C52.4312 76.698 52.2187 76.5896 52.027 76.5188C51.8 76.4355 51.5729 76.3521 51.3395 76.2855C51.252 76.2605 50.975 76.1834 50.95 76.175C50.85 76.148 50.7458 76.1313 50.6458 76.1105C50.152 76.0042 49.6583 75.9 49.1625 75.7938C48.9375 75.7459 48.7104 75.698 48.4854 75.65C48.4145 75.6355 48.3437 75.6188 48.2708 75.6042C48.1187 75.573 47.9812 75.4292 47.902 75.3C47.7479 75.0563 47.8312 74.8105 47.902 74.5563C47.9062 74.5438 48.0229 74.1292 48.0645 73.9771C48.0895 73.8855 48.2041 73.4834 48.2312 73.3834Z" fill="url(#paint4_linear_1510_19499)"/>
<path d="M35.6708 85.6979C35.6666 85.6875 35.6729 85.6396 35.6708 85.6292C35.7333 85.2417 35.8 85 35.8687 84.6313C35.9291 84.3354 35.9396 84 36.0083 83.7C36.0291 83.625 36.1458 83.1938 36.1854 83.0771C36.3271 82.65 36.4396 82.2104 36.6041 81.7875C36.6146 81.7833 36.6104 81.7396 36.6062 81.7292C36.6062 81.7292 36.5896 81.7125 36.5792 81.7167C36.5687 81.7208 36.5146 81.7271 36.5 81.7209C35.9521 81.9313 35.3666 82.0979 34.7979 82.2459C34.7333 82.2563 34.4729 82.3354 34.4271 82.2L33.8937 80.8104C33.8166 80.6188 34.0875 80.5375 34.1958 80.4896L37.8396 79.1375C38.0896 79.0979 38.125 79.2354 38.2771 79.3771C38.2812 79.3875 38.3625 79.4271 38.3708 79.4479C38.5812 79.6959 38.6542 80.0396 38.7521 80.3271C38.8021 80.4709 38.7437 80.5709 38.7 80.7125C38.6 81.1938 38.5292 81.5521 38.3771 82.05C38.0187 82.8146 37.9375 83.6813 37.6937 84.475C37.6937 84.475 37.6979 84.4854 37.7 84.4958C37.7167 84.5479 37.7833 84.5354 37.8167 84.5354C37.8687 84.5188 38.0729 84.4479 38.125 84.4292C38.3146 84.3646 38.4979 84.2792 38.6792 84.1917C38.7708 84.1479 38.8625 84.1021 38.9542 84.0584C38.9979 84.0375 39.0458 84.0084 39.0937 83.9938C39.1292 83.9834 39.1708 83.9813 39.2083 83.9771C39.3104 83.9667 39.4146 83.9813 39.5104 84.0188C39.5875 84.05 39.6583 84.0958 39.7167 84.1521C39.7458 84.1813 39.7771 84.2125 39.7979 84.2479C39.8146 84.275 39.8208 84.3063 39.8333 84.3354C39.8875 84.4646 39.9417 84.5917 39.9958 84.7209C40.0896 84.9417 40.2021 85.1604 40.2771 85.3875C40.3312 85.55 40.3646 85.7229 40.225 85.8563C40.0979 85.9792 39.9021 86.0021 39.7396 86.0458C39.5458 86.0958 39.35 86.1458 39.1604 86.2104C39.0896 86.2354 38.8625 86.3125 38.8417 86.3188C38.7604 86.3458 38.6833 86.3854 38.6042 86.4188C38.2167 86.5792 37.8292 86.7417 37.4417 86.9021C37.2646 86.975 37.0875 87.05 36.9104 87.1229C36.8541 87.1459 36.7979 87.1688 36.7437 87.1917C36.625 87.2438 36.4646 87.2083 36.3479 87.1583C36.1271 87.0646 36.0687 86.8584 35.9958 86.65C35.9916 86.6396 35.8771 86.3 35.8333 86.1771C35.8125 86.1083 35.7 85.7813 35.6708 85.6979Z" fill="url(#paint5_linear_1510_19499)"/>
<defs>
<linearGradient id="paint0_linear_1510_19499" x1="-17.5815" y1="-19.6692" x2="188.758" y2="200.714" gradientUnits="userSpaceOnUse">
<stop stop-color="#B0B9CA"/>
<stop offset="1" stop-color="#D2DBEF"/>
</linearGradient>
<linearGradient id="paint1_linear_1510_19499" x1="169.579" y1="60.6408" x2="169.579" y2="87.7394" gradientUnits="userSpaceOnUse">
<stop stop-color="#B0B9CA"/>
<stop offset="1" stop-color="#969EAE"/>
</linearGradient>
<linearGradient id="paint2_linear_1510_19499" x1="196.804" y1="41.5853" x2="196.804" y2="61.7396" gradientUnits="userSpaceOnUse">
<stop stop-color="#B0B9CA"/>
<stop offset="1" stop-color="#969EAE"/>
</linearGradient>
<linearGradient id="paint3_linear_1510_19499" x1="176.418" y1="25.4166" x2="176.418" y2="42.5809" gradientUnits="userSpaceOnUse">
<stop stop-color="#B0B9CA"/>
<stop offset="1" stop-color="#969EAE"/>
</linearGradient>
<linearGradient id="paint4_linear_1510_19499" x1="51.5028" y1="67.1683" x2="51.5028" y2="76.6667" gradientUnits="userSpaceOnUse">
<stop stop-color="#B0B9CA"/>
<stop offset="1" stop-color="#969EAE"/>
</linearGradient>
<linearGradient id="paint5_linear_1510_19499" x1="37.1035" y1="79.1315" x2="37.1035" y2="87.2208" gradientUnits="userSpaceOnUse">
<stop stop-color="#B0B9CA"/>
<stop offset="1" stop-color="#969EAE"/>
</linearGradient>
</defs>
</svg>
