<svg width="40" height="40" viewBox="0 0 40 40" fill="none" xmlns="http://www.w3.org/2000/svg">
<path fill-rule="evenodd" clip-rule="evenodd" d="M0 20C0 34.9989 5.00108 40 20 40C34.9989 40 40 34.9989 40 20C40 5.00108 34.9989 0 20 0C5.00108 0 0 5.00108 0 20Z" fill="#FFF1E5"/>
<path d="M19.4198 25.4444C19.3097 25.4444 19.2027 25.4808 19.1153 25.5478L14.8706 28.8059C14.7929 28.8655 14.6847 28.7895 14.7144 28.6962L15.5424 26.0962C15.6451 25.7737 15.4045 25.4444 15.066 25.4444H12C11.1716 25.4444 10.5 24.7765 10.5 23.9481C10.5 21.6158 10.5 17.111 10.5 14.4968C10.5 13.6684 11.1688 13 11.9972 13C15.525 13 23.2477 13 26.5043 13C27.3328 13 28 13.6687 28 14.4971C28 17.0058 28 21.5873 28 23.9489C28 24.7773 27.3284 25.4444 26.5 25.4444H19.4198Z" fill="#F28022"/>
<path d="M28.9368 16.1495C29.0588 16.2112 29.2492 16.311 29.3802 16.5282C29.4526 16.6512 29.4937 16.7888 29.5 16.9299C29.4935 17.0705 29.4524 17.2077 29.3802 17.3302C29.2492 17.5485 28.9784 17.7882 28.8563 17.8501C28.6039 17.9737 28.2814 17.8827 28 17.8501V16.0099C28.2815 15.9772 28.6844 16.0258 28.9368 16.1495Z" fill="#6487D6"/>
<path d="M13.5 20.8884C13.5 19.1702 14.8929 17.7773 16.6111 17.7773H28.1177C28.3991 17.8095 28.6843 17.7615 28.9368 17.6395C29.0588 17.5783 29.2492 17.4794 29.3802 17.2651C29.4524 17.144 29.4935 17.0085 29.5 16.8696V23.0815C29.4937 23.2208 29.4526 23.3568 29.3802 23.4782C29.2506 23.6928 29.0588 23.7914 28.9368 23.8523C28.7041 23.9657 28.4427 24.0154 28.1818 23.9958V23.9995H16.6111C14.8929 23.9995 13.5 22.6066 13.5 20.8884V20.8884Z" fill="#99B7FB"/>
<path fill-rule="evenodd" clip-rule="evenodd" d="M15.5 22.0001C15.5 21.7792 15.7239 21.6001 16 21.6001H17.5C17.7761 21.6001 18 21.7792 18 22.0001C18 22.221 17.7761 22.4001 17.5 22.4001H16C15.7239 22.4001 15.5 22.221 15.5 22.0001Z" fill="white"/>
<path fill-rule="evenodd" clip-rule="evenodd" d="M19 22.0001C19 21.7792 19.2239 21.6001 19.5 21.6001H21C21.2761 21.6001 21.5 21.7792 21.5 22.0001C21.5 22.221 21.2761 22.4001 21 22.4001H19.5C19.2239 22.4001 19 22.221 19 22.0001Z" fill="white"/>
<path fill-rule="evenodd" clip-rule="evenodd" d="M22.5 22.0001C22.5 21.7792 22.7239 21.6001 23 21.6001H24.5C24.7761 21.6001 25 21.7792 25 22.0001C25 22.221 24.7761 22.4001 24.5 22.4001H23C22.7239 22.4001 22.5 22.221 22.5 22.0001Z" fill="white"/>
<path fill-rule="evenodd" clip-rule="evenodd" d="M26 22.0001C26 21.7792 26.2239 21.6001 26.5 21.6001H28C28.2761 21.6001 28.5 21.7792 28.5 22.0001C28.5 22.221 28.2761 22.4001 28 22.4001H26.5C26.2239 22.4001 26 22.221 26 22.0001Z" fill="white"/>
<path fill-rule="evenodd" clip-rule="evenodd" d="M16.9952 19.9813C17.0084 19.9735 17.0219 19.9659 17.0358 19.9585L17.3787 19.7661C17.4019 19.7531 17.4313 19.7606 17.4455 19.7831L17.5923 20.0169C17.5996 20.0285 17.6018 20.0426 17.5984 20.0559C17.595 20.0692 17.5863 20.0805 17.5743 20.0872L17.2292 20.2796C17.2169 20.2868 17.2044 20.2935 17.1918 20.2999C17.2044 20.3063 17.217 20.3132 17.2295 20.3206L17.5748 20.5174C17.5865 20.5241 17.5951 20.5353 17.5984 20.5484C17.6018 20.5615 17.5997 20.5754 17.5926 20.5869L17.4481 20.8229C17.4339 20.8459 17.4041 20.8536 17.3807 20.8402L17.035 20.6432C17.0217 20.6354 17.0082 20.6273 16.9955 20.6194C16.9964 20.6329 16.9968 20.6466 16.9968 20.6604V21.05C16.9968 21.0776 16.9745 21.1 16.9468 21.1H16.6509C16.6233 21.1 16.6009 21.0776 16.6009 21.05V20.6647C16.6009 20.6505 16.6012 20.6365 16.6019 20.6225C16.5898 20.6299 16.5771 20.637 16.564 20.6438L16.2213 20.836C16.198 20.8491 16.1685 20.8415 16.1544 20.8188L16.0076 20.5829C16.0003 20.5713 15.9982 20.5572 16.0016 20.544C16.005 20.5307 16.0137 20.5195 16.0257 20.5128L16.3713 20.3202C16.384 20.3131 16.3967 20.3065 16.4093 20.3005C16.3962 20.2939 16.3834 20.2869 16.3706 20.2794L16.0252 20.0826C16.0135 20.0759 16.0049 20.0647 16.0015 20.0515C15.9982 20.0384 16.0003 20.0244 16.0075 20.0129L16.1521 19.7791C16.1662 19.7562 16.1959 19.7486 16.2193 19.762L16.5641 19.9585C16.5772 19.9653 16.5899 19.9724 16.6021 19.9798C16.6013 19.9673 16.6009 19.9546 16.6009 19.9418V19.55C16.6009 19.5224 16.6233 19.5 16.6509 19.5H16.9468C16.9745 19.5 16.9968 19.5224 16.9968 19.55V19.9374C16.9968 19.9521 16.9963 19.9667 16.9952 19.9813Z" fill="white"/>
<path fill-rule="evenodd" clip-rule="evenodd" d="M20.4952 19.9813C20.5084 19.9735 20.5219 19.9659 20.5358 19.9585L20.8787 19.7661C20.9019 19.7531 20.9313 19.7606 20.9455 19.7831L21.0923 20.0169C21.0996 20.0285 21.1018 20.0426 21.0984 20.0559C21.095 20.0692 21.0863 20.0805 21.0743 20.0872L20.7292 20.2796C20.7169 20.2868 20.7044 20.2935 20.6918 20.2999C20.7044 20.3063 20.717 20.3132 20.7295 20.3206L21.0748 20.5174C21.0865 20.5241 21.0951 20.5353 21.0984 20.5484C21.1018 20.5615 21.0997 20.5754 21.0926 20.5869L20.9481 20.8229C20.9339 20.8459 20.9041 20.8536 20.8807 20.8402L20.535 20.6432C20.5217 20.6354 20.5082 20.6273 20.4955 20.6194C20.4964 20.6329 20.4968 20.6466 20.4968 20.6604V21.05C20.4968 21.0776 20.4745 21.1 20.4468 21.1H20.1509C20.1233 21.1 20.1009 21.0776 20.1009 21.05V20.6647C20.1009 20.6505 20.1012 20.6365 20.1019 20.6225C20.0898 20.6299 20.0771 20.637 20.064 20.6438L19.7213 20.836C19.698 20.8491 19.6685 20.8415 19.6544 20.8188L19.5076 20.5829C19.5003 20.5713 19.4982 20.5572 19.5016 20.544C19.505 20.5307 19.5137 20.5195 19.5257 20.5128L19.8713 20.3202C19.884 20.3131 19.8967 20.3065 19.9093 20.3005C19.8962 20.2939 19.8834 20.2869 19.8706 20.2794L19.5252 20.0826C19.5135 20.0759 19.5049 20.0647 19.5015 20.0515C19.4982 20.0384 19.5003 20.0244 19.5075 20.0129L19.6521 19.7791C19.6662 19.7562 19.6959 19.7486 19.7193 19.762L20.0641 19.9585C20.0772 19.9653 20.0899 19.9724 20.1021 19.9798C20.1013 19.9673 20.1009 19.9546 20.1009 19.9418V19.55C20.1009 19.5224 20.1233 19.5 20.1509 19.5H20.4468C20.4745 19.5 20.4968 19.5224 20.4968 19.55V19.9374C20.4968 19.9521 20.4963 19.9667 20.4952 19.9813Z" fill="white"/>
<path fill-rule="evenodd" clip-rule="evenodd" d="M23.9952 19.9813C24.0084 19.9735 24.0219 19.9659 24.0358 19.9585L24.3787 19.7661C24.4019 19.7531 24.4313 19.7606 24.4455 19.7831L24.5923 20.0169C24.5996 20.0285 24.6018 20.0426 24.5984 20.0559C24.595 20.0692 24.5863 20.0805 24.5743 20.0872L24.2292 20.2796C24.2169 20.2868 24.2044 20.2935 24.1918 20.2999C24.2044 20.3063 24.217 20.3132 24.2295 20.3206L24.5748 20.5174C24.5865 20.5241 24.5951 20.5353 24.5984 20.5484C24.6018 20.5615 24.5997 20.5754 24.5926 20.5869L24.4481 20.8229C24.4339 20.8459 24.4041 20.8536 24.3807 20.8402L24.035 20.6432C24.0217 20.6354 24.0082 20.6273 23.9955 20.6194C23.9964 20.6329 23.9968 20.6466 23.9968 20.6604V21.05C23.9968 21.0776 23.9745 21.1 23.9468 21.1H23.6509C23.6233 21.1 23.6009 21.0776 23.6009 21.05V20.6647C23.6009 20.6505 23.6012 20.6365 23.6019 20.6225C23.5898 20.6299 23.5771 20.637 23.564 20.6438L23.2213 20.836C23.198 20.8491 23.1685 20.8415 23.1544 20.8188L23.0076 20.5829C23.0003 20.5713 22.9982 20.5572 23.0016 20.544C23.005 20.5307 23.0137 20.5195 23.0257 20.5128L23.3713 20.3202C23.384 20.3131 23.3967 20.3065 23.4093 20.3005C23.3962 20.2939 23.3834 20.2869 23.3706 20.2794L23.0252 20.0826C23.0135 20.0759 23.0049 20.0647 23.0015 20.0515C22.9982 20.0384 23.0003 20.0244 23.0075 20.0129L23.1521 19.7791C23.1662 19.7562 23.1959 19.7486 23.2193 19.762L23.5641 19.9585C23.5772 19.9653 23.5899 19.9724 23.6021 19.9798C23.6013 19.9673 23.6009 19.9546 23.6009 19.9418V19.55C23.6009 19.5224 23.6233 19.5 23.6509 19.5H23.9468C23.9745 19.5 23.9968 19.5224 23.9968 19.55V19.9374C23.9968 19.9521 23.9963 19.9667 23.9952 19.9813Z" fill="white"/>
<path fill-rule="evenodd" clip-rule="evenodd" d="M27.4952 19.9813C27.5084 19.9735 27.5219 19.9659 27.5358 19.9585L27.8787 19.7661C27.9019 19.7531 27.9313 19.7606 27.9455 19.7831L28.0923 20.0169C28.0996 20.0285 28.1018 20.0426 28.0984 20.0559C28.095 20.0692 28.0863 20.0805 28.0743 20.0872L27.7292 20.2796C27.7169 20.2868 27.7044 20.2935 27.6918 20.2999C27.7044 20.3063 27.717 20.3132 27.7295 20.3206L28.0748 20.5174C28.0865 20.5241 28.0951 20.5353 28.0984 20.5484C28.1018 20.5615 28.0997 20.5754 28.0926 20.5869L27.9481 20.8229C27.9339 20.8459 27.9041 20.8536 27.8807 20.8402L27.535 20.6432C27.5217 20.6354 27.5082 20.6273 27.4955 20.6194C27.4964 20.6329 27.4968 20.6466 27.4968 20.6604V21.05C27.4968 21.0776 27.4745 21.1 27.4468 21.1H27.1509C27.1233 21.1 27.1009 21.0776 27.1009 21.05V20.6647C27.1009 20.6505 27.1012 20.6365 27.1019 20.6225C27.0898 20.6299 27.0771 20.637 27.064 20.6438L26.7213 20.836C26.698 20.8491 26.6685 20.8415 26.6544 20.8188L26.5076 20.5829C26.5003 20.5713 26.4982 20.5572 26.5016 20.544C26.505 20.5307 26.5137 20.5195 26.5257 20.5128L26.8713 20.3202C26.884 20.3131 26.8967 20.3065 26.9093 20.3005C26.8962 20.2939 26.8834 20.2869 26.8706 20.2794L26.5252 20.0826C26.5135 20.0759 26.5049 20.0647 26.5015 20.0515C26.4982 20.0384 26.5003 20.0244 26.5075 20.0129L26.6521 19.7791C26.6662 19.7562 26.6959 19.7486 26.7193 19.762L27.0641 19.9585C27.0772 19.9653 27.0899 19.9724 27.1021 19.9798C27.1013 19.9673 27.1009 19.9546 27.1009 19.9418V19.55C27.1009 19.5224 27.1233 19.5 27.1509 19.5H27.4468C27.4745 19.5 27.4968 19.5224 27.4968 19.55V19.9374C27.4968 19.9521 27.4963 19.9667 27.4952 19.9813Z" fill="white"/>
</svg>
