<svg width="32" height="40" viewBox="0 0 32 40" fill="none" xmlns="http://www.w3.org/2000/svg">
<g opacity="0.6">
<path d="M25.6953 17.9251C25.5924 17.9371 25.4852 17.923 25.3833 17.8791C25.074 17.7455 24.9314 17.3864 25.0651 17.077L29.5115 6.77931C29.5759 6.63035 29.5072 6.45747 29.3582 6.39319L28.1153 5.85649C27.8085 5.72404 27.643 5.3721 27.7662 5.06148C27.8936 4.74012 28.2602 4.58986 28.5754 4.72597L30.6608 5.62642C30.7385 5.66001 30.8115 5.70598 30.8698 5.76749C31.0451 5.95265 31.0848 6.21405 30.9901 6.43322L26.1854 17.5608C26.0958 17.7683 25.9047 17.9007 25.6953 17.9251Z" fill="#CD7832"/>
<path d="M28.5677 1.67169C28.6047 1.9893 28.5614 2.32107 28.4254 2.63673L27.6888 4.34268L25.723 3.96413L24.2209 2.84565L24.9582 1.13881C25.2814 0.391065 26.0297 -0.0410163 26.7973 0.00307858C27.0124 0.0140616 27.2303 0.0640141 27.4399 0.154238C28.0824 0.431661 28.492 1.02279 28.5677 1.67169Z" fill="#FFD7B5"/>
<path d="M28.4254 2.63642L27.6883 4.34245L26.4004 4.04168L27.2303 2.12062C27.367 1.80577 27.4101 1.47384 27.3727 1.15574C27.3222 0.719674 27.1205 0.309641 26.7975 0.00292969C27.0123 0.0143195 27.2303 0.0639466 27.4394 0.154252C28.0821 0.431675 28.4921 1.02313 28.5678 1.67154C28.6044 1.98964 28.5613 2.32076 28.4254 2.63642Z" fill="#FFAF6A"/>
<path fill-rule="evenodd" clip-rule="evenodd" d="M22.9048 17.8577L28.5752 4.72534L23.9033 2.70813C23.5891 2.57251 23.2245 2.71724 23.0888 3.03135L17.6634 15.5944L17.6629 15.5944L10.6309 31.8826L13.2508 33.7536L15.8716 34.1454L22.9044 17.8577L22.9043 17.8575L22.9048 17.8577Z" fill="#FE963F"/>
<path fill-rule="evenodd" clip-rule="evenodd" d="M22.9049 17.8576L28.5754 4.72515L26.4935 3.82617L21.136 16.2355L21.1359 16.2354L13.5518 33.7986L13.7904 33.2469L15.8723 34.145L22.9047 17.8576L22.9045 17.8574L22.9049 17.8576Z" fill="#F28022"/>
<path d="M13.7905 33.2463V33.2472L10.6315 31.8828L13.7905 33.2463Z" fill="#5986CB"/>
<path d="M15.872 34.1462L11.9327 37.8479C11.4425 38.3088 10.6387 37.9618 10.6383 37.2894L10.6371 36.2109L10.6309 31.8828L13.791 33.2477L15.872 34.1462Z" fill="#FFF1E5"/>
<path d="M15.8713 34.1452L11.9321 37.8469C11.4423 38.3082 10.6385 37.9608 10.6377 37.2888L10.6369 36.21L13.7903 33.2471L15.8713 34.1452Z" fill="#FFD7B5"/>
</g>
<g opacity="0.6">
<path d="M6.97645 40.0002C6.90404 40.0002 6.83034 39.9981 6.75516 39.9937C5.78931 39.9374 5.2225 39.4347 4.72241 38.9913C4.25323 38.5752 3.88265 38.2466 3.18372 38.2098C1.83916 38.14 1.1735 39.3119 1.14576 39.3617C0.983292 39.6552 0.613448 39.7642 0.318777 39.6035C0.0242692 39.4428 -0.0862121 39.0763 0.0725944 38.7809C0.11433 38.7031 1.11802 36.8799 3.24791 36.9912C4.37298 37.0505 5.01569 37.6203 5.53206 38.0783C5.9678 38.4646 6.28265 38.7439 6.82619 38.7755C8.27131 38.8611 8.95991 37.6479 8.96666 37.6356C9.13002 37.3408 9.50133 37.2343 9.79608 37.3976C10.0908 37.561 10.1974 37.9323 10.0341 38.227C9.9928 38.3018 9.02735 40.0001 6.97645 40.0002Z" fill="#787070"/>
</g>
</svg>
