<svg width="16" height="16" viewBox="0 0 16 16" fill="none" xmlns="http://www.w3.org/2000/svg">
<path fill-rule="evenodd" clip-rule="evenodd" d="M3.03125 3.0625C4.40626 1.68749 6.06249 1 8 1C9.93751 1 11.5885 1.68228 12.9531 3.04687C14.3177 4.41146 15 6.06249 15 8C15 9.93751 14.3177 11.5885 12.9531 12.9531C11.5885 14.3177 9.93751 15 8 15C6.06249 15 4.41147 14.3177 3.04688 12.9531C1.68228 11.5885 1 9.93751 1 8C1 6.06249 1.67708 4.41667 3.03125 3.0625ZM5.53033 4.46967C5.23744 4.17678 4.76256 4.17678 4.46967 4.46967C4.17678 4.76256 4.17678 5.23744 4.46967 5.53033L6.93934 8L4.46967 10.4697C4.17678 10.7626 4.17678 11.2374 4.46967 11.5303C4.76256 11.8232 5.23744 11.8232 5.53033 11.5303L8 9.06066L10.4697 11.5303C10.7626 11.8232 11.2374 11.8232 11.5303 11.5303C11.8232 11.2374 11.8232 10.7626 11.5303 10.4697L9.06066 8L11.5303 5.53033C11.8232 5.23744 11.8232 4.76256 11.5303 4.46967C11.2374 4.17678 10.7626 4.17678 10.4697 4.46967L8 6.93934L5.53033 4.46967Z" fill="#A49F9B"/>
</svg>
