<svg width="24" height="24" viewBox="0 0 24 24" fill="none" xmlns="http://www.w3.org/2000/svg">
<path d="M3 9.3V5C3 3.89543 3.89543 3 5 3H9.3M3 14.25V19C3 20.1046 3.89543 21 5 21H9.3M14.7 21H19C20.1046 21 21 20.1046 21 19V14.7M21 9.3V5C21 3.89543 20.1046 3 19 3H14.7" stroke="white" stroke-width="1.5" stroke-linecap="round"/>
<rect x="6" y="6" width="4" height="4" rx="0.5" stroke="white" stroke-width="1.5"/>
<rect x="6" y="14" width="4" height="4" rx="0.5" stroke="white" stroke-width="1.5"/>
<path d="M15 14H14.5C14.2239 14 14 14.2239 14 14.5V15" stroke="white" stroke-width="1.5" stroke-linecap="round"/>
<path d="M18 14V17.5C18 17.7761 17.7761 18 17.5 18H16.5" stroke="white" stroke-width="1.5" stroke-linecap="round"/>
<rect x="14" y="6" width="4" height="4" rx="0.5" stroke="white" stroke-width="1.5"/>
<circle cx="14" cy="18" r="0.75" fill="white"/>
</svg>
