<svg width="24" height="24" viewBox="0 0 24 24" fill="none" xmlns="http://www.w3.org/2000/svg">
<path d="M3.05663 16.6892C2.95569 16.8885 2.99199 17.1299 3.1471 17.2908C3.3022 17.4516 3.54212 17.4967 3.745 17.403L6.36928 16.1918C8.57487 15.1739 10.9818 14.7082 13.3846 14.8177C13.4131 15.5893 13.4554 16.3605 13.5116 17.131L13.5835 18.1169C13.6271 18.715 14.294 19.0493 14.7993 18.7264C16.9928 17.3249 18.8996 15.519 20.4182 13.4049L20.9014 12.7323C21.0329 12.5493 21.0329 12.3027 20.9014 12.1197L20.4182 11.4471C18.8996 9.33304 16.9928 7.52711 14.7993 6.12557C14.294 5.80266 13.6271 6.13702 13.5835 6.73514L13.5116 7.72103C13.4634 8.38237 13.4254 9.04427 13.3975 9.70648H12.7223C8.96231 9.70648 5.52181 11.8208 3.82325 15.1752L3.05663 16.6892Z" fill="#F28022"/>
</svg>
