<svg width="30" height="30" viewBox="0 0 30 30" fill="none" xmlns="http://www.w3.org/2000/svg">
<path fill-rule="evenodd" clip-rule="evenodd" d="M0 15C0 26.2492 3.75081 30 15 30C26.2492 30 30 26.2492 30 15C30 3.75081 26.2492 0 15 0C3.75081 0 0 3.75081 0 15Z" fill="#F28022"/>
<rect x="5" y="5" width="20" height="20" rx="4" fill="#F28022"/>
<path d="M8.01158 16.6305C8.90464 16.6305 9.74448 16.6246 10.5784 16.6305C11.0456 16.6365 11.2999 16.8316 11.3473 17.2042C11.4005 17.6715 11.1284 17.9849 10.6198 17.9908C9.66168 18.0027 8.70947 17.9967 7.75135 17.9967C7.47338 17.9967 7.20132 18.0086 6.92334 17.9908C6.58031 17.9731 6.2432 17.9021 6.0776 17.5473C5.91199 17.1924 6.03028 16.873 6.25502 16.5832C7.16583 15.424 8.08255 14.2589 8.99927 13.0997C9.0525 13.0287 9.10573 12.9577 9.15896 12.8927C9.09981 12.7921 9.01701 12.8394 8.94604 12.8335C8.30729 12.8276 7.66263 12.8335 7.02389 12.8276C6.87603 12.8276 6.72817 12.8099 6.58623 12.7803C6.24911 12.7034 6.04211 12.3663 6.119 12.0351C6.17222 11.8104 6.34965 11.627 6.5744 11.5738C6.71634 11.5383 6.8642 11.5205 7.01206 11.5205C8.06481 11.5146 9.12347 11.5146 10.1762 11.5205C10.3655 11.5146 10.5488 11.5383 10.7322 11.5856C11.1343 11.7216 11.3059 12.0942 11.1462 12.4846C11.0042 12.8217 10.7795 13.1115 10.5547 13.4013C9.77996 14.389 9.00519 15.3708 8.23041 16.3466C8.16535 16.4235 8.10621 16.5004 8.01158 16.6305Z" fill="white"/>
<path d="M14.8732 13.5196C15.0151 13.3363 15.163 13.1648 15.4055 13.1175C15.8727 13.0228 16.3104 13.3245 16.3163 13.7976C16.334 14.9805 16.3281 16.1634 16.3163 17.3463C16.3163 17.6539 16.1152 17.9259 15.8254 18.0146C15.5297 18.127 15.1926 18.0383 14.9974 17.784C14.8968 17.6598 14.8554 17.6361 14.7135 17.7485C14.1753 18.1862 13.5661 18.263 12.9096 18.0501C11.8568 17.7071 11.4251 16.885 11.3068 15.8854C11.1826 14.8031 11.5434 13.8804 12.5133 13.3126C13.3177 12.8336 14.1339 12.875 14.8732 13.5196ZM12.7795 15.6784C12.7913 15.9387 12.8741 16.1871 13.0279 16.3941C13.3473 16.8199 13.9565 16.9086 14.3882 16.5892C14.4592 16.536 14.5242 16.471 14.5834 16.3941C14.9146 15.9446 14.9146 15.2053 14.5834 14.7558C14.4178 14.5251 14.1575 14.3891 13.8796 14.3832C13.229 14.3418 12.7736 14.8445 12.7795 15.6784ZM18.9719 15.7139C18.9246 14.1939 19.9241 13.0583 21.3435 13.0169C22.8517 12.9696 23.9518 13.981 23.9991 15.4596C24.0464 16.9559 23.1297 18.0146 21.7161 18.1566C20.1725 18.3104 18.9482 17.1925 18.9719 15.7139ZM20.4564 15.572C20.4446 15.8677 20.5333 16.1575 20.7107 16.4C21.036 16.8258 21.6452 16.9086 22.071 16.5774C22.1361 16.5301 22.1893 16.471 22.2425 16.4118C22.5856 15.9623 22.5856 15.2053 22.2484 14.7558C22.0828 14.531 21.8226 14.3891 21.5446 14.3832C20.9059 14.3477 20.4564 14.8327 20.4564 15.572ZM18.4514 14.5369C18.4514 15.4537 18.4573 16.3704 18.4514 17.2872C18.4573 17.7071 18.1261 18.056 17.7062 18.0679C17.6352 18.0679 17.5583 18.0619 17.4874 18.0442C17.1916 17.9673 16.9669 17.6539 16.9669 17.2812V12.5792C16.9669 12.3013 16.961 12.0292 16.9669 11.7512C16.9728 11.2958 17.2626 11.0001 17.7003 11.0001C18.1498 10.9942 18.4514 11.2899 18.4514 11.7631C18.4573 12.6857 18.4514 13.6143 18.4514 14.5369Z" fill="white"/>
</svg>
