<svg width="40" height="40" viewBox="0 0 40 40" fill="none" xmlns="http://www.w3.org/2000/svg">
<path fill-rule="evenodd" clip-rule="evenodd" d="M0 20C0 34.9989 5.00108 40 20 40C34.9989 40 40 34.9989 40 20C40 5.00108 34.9989 0 20 0C5.00108 0 0 5.00108 0 20Z" fill="#FFF1E5"/>
<path d="M22.0821 28.9315L20.7164 27.1851C20.2398 27.2392 19.7586 27.2392 19.2819 27.1851L17.9155 28.9331C17.6517 29.2606 17.1891 29.3482 16.8238 29.1397L13.6833 27.3228C13.3157 27.1136 13.1552 26.6679 13.3049 26.2723L14.133 24.2139C13.8524 23.8272 13.6118 23.4128 13.415 22.9774L11.2284 22.6615C10.8086 22.6045 10.4966 22.2444 10.5 21.8207V18.1791C10.4975 17.759 10.806 17.4017 11.222 17.3431L13.4149 17.0264C13.6136 16.5923 13.8544 16.1786 14.1338 15.7914L13.3041 13.7275C13.1497 13.336 13.3083 12.8908 13.6754 12.6849L16.8214 10.8664C17.1873 10.6524 17.655 10.7405 17.9179 11.0731L19.2835 12.8195C19.7601 12.7648 20.2414 12.7648 20.718 12.8195L22.0836 11.0715C22.3471 10.7434 22.81 10.6554 23.1754 10.8641L26.3167 12.6802C26.6846 12.8892 26.8452 13.3351 26.6951 13.7307L25.867 15.789C26.1478 16.1762 26.3886 16.5907 26.5859 17.0264L28.7709 17.3431C29.1895 17.3988 29.5017 17.7567 29.5 18.1791V21.8207C29.5033 22.2416 29.1947 22.6 28.778 22.6591L26.5851 22.9757C26.3863 23.4098 26.1455 23.8234 25.8662 24.2107L26.6967 26.277C26.8507 26.6685 26.6922 27.1135 26.3254 27.3196L23.1667 29.1436C22.8019 29.3478 22.343 29.258 22.0821 28.9315ZM23.9583 19.9999C23.9583 17.8138 22.1861 16.0416 20 16.0416C17.8138 16.0416 16.0416 17.8137 16.0416 19.9999C16.0416 22.186 17.8138 23.9582 20 23.9582C22.185 23.9556 23.9557 22.1849 23.9583 19.9999Z" fill="#F3C74C"/>
</svg>
