<svg width="40" height="40" viewBox="0 0 40 40" fill="none" xmlns="http://www.w3.org/2000/svg">
    <path fill-rule="evenodd" clip-rule="evenodd" d="M0 20C0 34.9989 5.00108 40 20 40C34.9989 40 40 34.9989 40 20C40 5.00108 34.9989 0 20 0C5.00108 0 0 5.00108 0 20Z" fill="#FFF1E5"/>
    <path fill-rule="evenodd" clip-rule="evenodd" d="M29.4974 18.3237L29.5 21.6446C29.4747 21.961 29.4422 22.277 29.4023 22.5925C29.3357 23.1199 28.8725 23.5454 28.2909 23.6056C26.4692 23.7941 24.584 23.7941 22.7623 23.6056C22.1806 23.5454 21.7174 23.1199 21.6508 22.5925C21.4332 20.87 21.4332 19.13 21.6508 17.4075C21.7174 16.8801 22.1806 16.4546 22.7623 16.3944C24.584 16.2059 26.4692 16.2059 28.2909 16.3944C28.8725 16.4546 29.3357 16.8801 29.4023 17.4075C29.4409 17.7124 29.4726 18.0179 29.4974 18.3237ZM25.5266 18.625C24.7063 18.625 24.0413 19.2406 24.0413 20C24.0413 20.7594 24.7063 21.375 25.5266 21.375C26.3469 21.375 27.0119 20.7594 27.0119 20C27.0119 19.2406 26.3469 18.625 25.5266 18.625Z" fill="#F28022"/>
    <path d="M28.8968 14.5364C29.0508 14.7832 28.7618 15.0596 28.4559 15.0279C26.5245 14.8281 24.5287 14.8281 22.5973 15.0279C21.3404 15.158 20.3238 16.0742 20.1756 17.2478C19.9445 19.0764 19.9445 20.9236 20.1756 22.7522C20.3238 23.9258 21.3404 24.842 22.5973 24.9721C24.5287 25.1719 26.5245 25.1719 28.4559 24.9721C28.7639 24.9402 29.0552 25.2185 28.8997 25.4667C28.1288 26.6977 26.7543 27.5568 25.157 27.7124L24.5116 27.7752C21.2331 28.0946 17.9264 28.0736 14.6531 27.7125L14.2254 27.6653C12.4607 27.4706 11.0625 26.1943 10.8274 24.5635C10.3909 21.5346 10.3909 18.4654 10.8274 15.4365C11.0625 13.8057 12.4607 12.5294 14.2254 12.3347L14.6531 12.2875C17.9264 11.9264 21.2332 11.9054 24.5116 12.2248L25.157 12.2876C26.7556 12.4434 28.128 13.3038 28.8968 14.5364Z" fill="#F28022"/>
</svg>
