<svg width="40" height="40" viewBox="0 0 40 40" fill="none" xmlns="http://www.w3.org/2000/svg">
    <path fill-rule="evenodd" clip-rule="evenodd" d="M0 20C0 34.9989 5.00108 40 20 40C34.9989 40 40 34.9989 40 20C40 5.00108 34.9989 0 20 0C5.00108 0 0 5.00108 0 20Z" fill="#FFF1E5"/>
    <path fill-rule="evenodd" clip-rule="evenodd" d="M20 11.7125C18.7301 11.7125 17.527 11.9981 16.4513 12.5086L18.0319 15.4567C18.5649 15.2427 19.1468 15.125 19.7562 15.125C20.3877 15.125 20.9896 15.2514 21.5381 15.4802L23.2119 12.3579C22.2241 11.9422 21.1389 11.7125 20 11.7125ZM24.053 18.0249C24.2687 18.5598 24.3875 19.1441 24.3875 19.7562C24.3875 20.3935 24.2588 21.0007 24.0259 21.5533L27.5426 23.4387C28.021 22.3912 28.2875 21.2267 28.2875 20C28.2875 18.6457 27.9626 17.3672 27.3866 16.2383L24.053 18.0249ZM21.5025 24.047C20.9636 24.2665 20.3741 24.3875 19.7562 24.3875C19.1384 24.3875 18.5489 24.2665 18.01 24.047L16.2236 27.3791C17.3561 27.9598 18.6398 28.2875 20 28.2875C21.2072 28.2875 22.3542 28.0294 23.3887 27.5653L21.5025 24.047ZM15.4866 21.5534C15.2537 21.0008 15.125 20.3936 15.125 19.7562C15.125 19.1465 15.2428 18.5644 15.4569 18.0312L12.5087 16.4511C11.9981 17.5268 11.7125 18.7301 11.7125 20C11.7125 21.1448 11.9446 22.2354 12.3644 23.2273L15.4866 21.5534ZM10.25 20C10.25 14.6152 14.6152 10.25 20 10.25C25.3848 10.25 29.75 14.6152 29.75 20C29.75 25.3848 25.3848 29.75 20 29.75C14.6152 29.75 10.25 25.3848 10.25 20ZM16.5875 19.7562C16.5875 18.0062 18.0062 16.5875 19.7562 16.5875C21.5063 16.5875 22.925 18.0062 22.925 19.7562C22.925 21.5063 21.5063 22.925 19.7562 22.925C18.0062 22.925 16.5875 21.5063 16.5875 19.7562Z" fill="#F28022"/>
</svg>
