<svg width="40" height="40" viewBox="0 0 40 40" fill="none" xmlns="http://www.w3.org/2000/svg">
<path fill-rule="evenodd" clip-rule="evenodd" d="M0 20C0 34.9989 5.00108 40 20 40C34.9989 40 40 34.9989 40 20C40 5.00108 34.9989 0 20 0C5.00108 0 0 5.00108 0 20Z" fill="#FFF1E5"/>
<path fill-rule="evenodd" clip-rule="evenodd" d="M29.6809 13.4449C29.8874 13.3986 30.1019 13.4731 30.2369 13.6358C30.3717 13.7993 30.4032 14.0236 30.3192 14.2184L24.7363 27.0851C24.6699 27.2373 24.5386 27.3536 24.3784 27.4007C24.2783 27.4298 24.1733 27.4303 24.0748 27.4039C24.0153 27.388 23.9587 27.362 23.9072 27.328L17.0083 22.6978L26.8862 15.7029L15.0253 21.3675L10.9089 18.6047C10.7227 18.4795 10.6282 18.2554 10.6697 18.0337C10.7118 17.8128 10.8807 17.6376 11.1004 17.5885L29.6809 13.4449ZM14.9313 27.4795L16.5534 23.5993L19.188 25.357L15.8261 28.0639C15.6837 28.1779 15.4986 28.2137 15.3291 28.1683C15.2726 28.1532 15.2177 28.1291 15.1668 28.0961C14.9634 27.9624 14.8685 27.7142 14.9313 27.4795Z" fill="#F3C74C"/>
</svg>
