<svg width="40" height="40" viewBox="0 0 40 40" fill="none" xmlns="http://www.w3.org/2000/svg">
<path fill-rule="evenodd" clip-rule="evenodd" d="M0 20C0 34.9989 5.00108 40 20 40C34.9989 40 40 34.9989 40 20C40 5.00108 34.9989 0 20 0C5.00108 0 0 5.00108 0 20Z" fill="#FFF1E5"/>
<path d="M28.9934 17.7795C28.5537 14.2465 25.7535 11.4463 22.2205 11.0066C21.6857 10.9401 21.2466 11.3834 21.2466 11.9223V18.2655C21.2466 18.5349 21.465 18.7534 21.7345 18.7534H28.0777C28.6166 18.7534 29.0599 18.3143 28.9934 17.7795Z" fill="#F3C74C"/>
<path d="M19.2949 12.4103C14.7137 12.4103 11 16.124 11 20.7051C11 25.2863 14.7137 29 19.2949 29C23.876 29 27.5897 25.2863 27.5897 20.7051C27.5897 20.4357 27.3713 20.2172 27.1018 20.2172H20.2707C20.0012 20.2172 19.7828 19.9988 19.7828 19.7293V12.8982C19.7828 12.6287 19.5643 12.4103 19.2949 12.4103Z" fill="#F3C74C"/>
</svg>
