<svg width="40" height="40" viewBox="0 0 40 40" fill="none" xmlns="http://www.w3.org/2000/svg">
<path fill-rule="evenodd" clip-rule="evenodd" d="M0 20C0 34.9989 5.00108 40 20 40C34.9989 40 40 34.9989 40 20C40 5.00108 34.9989 0 20 0C5.00108 0 0 5.00108 0 20Z" fill="#FFF1E5"/>
<path fill-rule="evenodd" clip-rule="evenodd" d="M14.2491 11.2723C12.5001 11.1265 11 12.5068 11 14.2619V25.7411C11 27.4963 12.5001 28.8765 14.2491 28.7308L20.2491 28.2308C21.804 28.1012 23 26.8014 23 25.2411V20.5015H26.5505L24.6605 22.8363C24.4209 23.1322 24.4533 23.5779 24.7328 23.8316C25.0124 24.0853 25.4332 24.051 25.6729 23.755L28.3395 20.4609C28.5535 20.1966 28.5535 19.8065 28.3395 19.5421L25.6729 16.248C25.4332 15.952 25.0124 15.9178 24.7328 16.1715C24.4533 16.4252 24.4209 16.8708 24.6605 17.1668L26.1458 19.0015H23V14.7619C23 13.2017 21.804 11.9019 20.2491 11.7723L14.2491 11.2723ZM23 19.0015V20.5015L18.6818 20.5015C18.3053 20.5015 18 20.1657 18 19.7515C18 19.3373 18.3053 19.0015 18.6818 19.0015H23Z" fill="#F3C74C"/>
</svg>
