<svg width="40" height="40" viewBox="0 0 40 40" fill="none" xmlns="http://www.w3.org/2000/svg">
    <path fill-rule="evenodd" clip-rule="evenodd" d="M0 20C0 34.9989 5.00108 40 20 40C34.9989 40 40 34.9989 40 20C40 5.00108 34.9989 0 20 0C5.00108 0 0 5.00108 0 20Z" fill="#FFF1E5"/>
    <path fill-rule="evenodd" clip-rule="evenodd" d="M15 23.9319C15 23.5177 15.3851 23.1819 15.8601 23.1819H24.1399C24.6149 23.1819 25 23.5177 25 23.9319C25 24.3461 24.6149 24.6819 24.1399 24.6819H15.8601C15.3851 24.6819 15 24.3461 15 23.9319ZM15 19.8312C15 19.417 15.3851 19.0812 15.8601 19.0812H24.1399C24.6149 19.0812 25 19.417 25 19.8312C25 20.2454 24.6149 20.5812 24.1399 20.5812H15.8601C15.3851 20.5812 15 20.2454 15 19.8312ZM15 15.74C15 15.3258 15.4735 14.99 16.0576 14.99H19.9424C20.5265 14.99 21 15.3258 21 15.74C21 16.1542 20.5265 16.49 19.9424 16.49H16.0576C15.4735 16.49 15 16.1542 15 15.74ZM24.2535 10C26.3257 9.99921 28.0031 11.8696 28 14.1724C27.995 17.8901 27.995 21.6078 28 25.3255C28.0031 27.6264 26.3316 29.4979 24.259 29.4983L15.7406 29.5C13.6708 29.5004 11.9996 27.6343 12 25.3359C12.0007 21.6129 12.0007 17.8898 12 14.1668C11.9996 11.8674 13.6755 10.0027 15.7438 10.0024C18.7681 10.0019 21.9785 10.0009 24.2535 10Z" fill="#F28022"/>
</svg>
