<svg width="40" height="40" viewBox="0 0 40 40" fill="none" xmlns="http://www.w3.org/2000/svg">
    <path fill-rule="evenodd" clip-rule="evenodd" d="M0 20C0 34.9989 5.00108 40 20 40C34.9989 40 40 34.9989 40 20C40 5.00108 34.9989 0 20 0C5.00108 0 0 5.00108 0 20Z" fill="#FFF1E5"/>
    <path fill-rule="evenodd" clip-rule="evenodd" d="M29.6809 13.4459C29.8874 13.3995 30.1019 13.4741 30.2369 13.6368C30.3717 13.8003 30.4032 14.0245 30.3192 14.2194L24.7363 27.0861C24.6699 27.2383 24.5386 27.3545 24.3784 27.4017C24.2783 27.4307 24.1733 27.4313 24.0748 27.4049C24.0153 27.389 23.9587 27.3629 23.9072 27.329L17.0083 22.6987L26.8862 15.7039L15.0253 21.3685L10.9089 18.6057C10.7227 18.4805 10.6282 18.2564 10.6697 18.0346C10.7118 17.8138 10.8807 17.6385 11.1004 17.5895L29.6809 13.4459ZM14.9313 27.4804L16.5534 23.6003L19.188 25.358L15.8261 28.0649C15.6837 28.1789 15.4986 28.2147 15.3291 28.1693C15.2726 28.1541 15.2177 28.1301 15.1668 28.0971C14.9634 27.9634 14.8685 27.7151 14.9313 27.4804Z" fill="#F28022"/>
</svg>
