<svg width="40" height="40" viewBox="0 0 40 40" fill="none" xmlns="http://www.w3.org/2000/svg">
    <path fill-rule="evenodd" clip-rule="evenodd" d="M0 20C0 34.9989 5.00108 40 20 40C34.9989 40 40 34.9989 40 20C40 5.00108 34.9989 0 20 0C5.00108 0 0 5.00108 0 20Z" fill="#FFF1E5"/>
    <path d="M17.4689 23.9375H17.2026C16.9537 23.9375 16.7253 23.7817 16.6511 23.544C16.5612 23.2562 16.7117 22.9552 16.9858 22.8501L21.2051 21.2273C21.5015 21.1133 21.6438 20.7773 21.5215 20.4843C19.8571 16.4953 19.4406 11.575 19.4358 11.5171C19.393 10.9878 18.7033 10.8069 18.4072 11.2502L17.594 12.4698L16.3748 11.657C16.0521 11.4416 15.6112 11.6108 15.517 11.9885L15.1478 13.464L14.1248 12.782C13.8021 12.5666 13.3612 12.7359 13.267 13.1135L12.8978 14.589L11.8748 13.907C11.485 13.6472 10.9651 13.9515 11.0018 14.4185C11.0131 14.5644 11.2912 18.0347 12.3462 21.5672C12.9748 23.6713 13.7518 25.356 14.6553 26.5753C15.2893 27.4299 16.2611 27.875 17.2429 27.875H17.439C18.5194 27.875 19.421 27.017 19.4374 25.9367C19.4541 24.8372 18.5646 23.9375 17.4689 23.9375ZM13.8527 17.9588C13.7374 17.6705 13.8776 17.3432 14.1663 17.2275L16.9788 16.1025C17.2671 15.9872 17.5944 16.1275 17.71 16.4161C17.8253 16.7044 17.6851 17.0317 17.3964 17.1474C14.3506 18.3657 14.5304 18.3125 14.3751 18.3125C14.1522 18.3125 13.9409 18.1789 13.8527 17.9588ZM15.1464 20.5224C14.8622 20.6361 14.5322 20.5006 14.4152 20.2088C14.2999 19.9205 14.4401 19.5932 14.7288 19.4775L17.5413 18.3525C17.8296 18.2372 18.1569 18.3775 18.2725 18.6661C18.3878 18.9544 18.2476 19.2817 17.9589 19.3974L15.1464 20.5224ZM26.1876 20.5625C26.0407 20.5625 26.3313 20.4672 22.2645 22.0313C22.2596 22.0231 19.5438 23.0715 19.5485 23.0697C19.3484 23.1467 19.3056 23.4089 19.4689 23.5476C21.1806 25.0011 20.8251 27.7291 18.8002 28.6985C18.649 28.7709 18.6996 28.9997 18.8672 29C19.3344 29.0008 19.7826 28.8868 20.1745 28.6822L26.24 26.1847C26.3553 26.1741 26.4608 26.1288 26.5452 26.0592C28.189 25.3826 28.1118 25.4324 28.2235 25.3156C29.9228 23.5341 28.6498 20.5625 26.1876 20.5625Z" fill="#F28022"/>
</svg>
