<svg width="40" height="40" viewBox="0 0 40 40" fill="none" xmlns="http://www.w3.org/2000/svg">
    <path fill-rule="evenodd" clip-rule="evenodd" d="M0 20C0 34.9989 5.00108 40 20 40C34.9989 40 40 34.9989 40 20C40 5.00108 34.9989 0 20 0C5.00108 0 0 5.00108 0 20Z" fill="#FFF1E5"/>
    <path fill-rule="evenodd" clip-rule="evenodd" d="M14 11C12.3431 11 11 12.3431 11 14V26C11 27.6569 12.3431 29 14 29H20C21.6569 29 23 27.6569 23 26V20.5H26.5505L24.6605 22.8347C24.4209 23.1307 24.4533 23.5763 24.7328 23.8301C25.0124 24.0838 25.4332 24.0495 25.6729 23.7535L28.3395 20.4594C28.5535 20.195 28.5535 19.805 28.3395 19.5406L25.6729 16.2465C25.4332 15.9505 25.0124 15.9162 24.7328 16.1699C24.4533 16.4237 24.4209 16.8693 24.6605 17.1653L26.1458 19H23V14C23 12.3431 21.6569 11 20 11H14ZM23 19V20.5H18.6818C18.3053 20.5 18 20.1642 18 19.75C18 19.3358 18.3053 19 18.6818 19H23Z" fill="#F28022"/>
</svg>
