<svg width="40" height="40" viewBox="0 0 40 40" fill="none" xmlns="http://www.w3.org/2000/svg">
    <path fill-rule="evenodd" clip-rule="evenodd" d="M0 20C0 34.9989 5.00108 40 20 40C34.9989 40 40 34.9989 40 20C40 5.00108 34.9989 0 20 0C5.00108 0 0 5.00108 0 20Z" fill="#FFF1E5"/>
    <path fill-rule="evenodd" clip-rule="evenodd" d="M12.7467 12.945C12.5994 12.9953 12.5 13.1308 12.5 13.2836V20.4359C12.5 22.2453 13.1756 23.9717 14.366 25.3083C14.9448 25.9593 15.6949 26.4844 16.5311 26.9248L19.73 28.9155C19.8975 29.0281 20.115 29.0282 20.2824 28.9155L23.475 26.9261C24.3096 26.4859 25.0586 25.9604 25.6366 25.31C26.826 23.9735 27.5 22.2478 27.5 20.4402V13.2836C27.5 13.1308 27.4015 12.9956 27.2542 12.9453L21.2495 11.1506C20.7691 10.9393 20.2289 10.9606 19.74 11.1506C17.5 11.6583 13.5899 12.656 12.7467 12.945Z" fill="#F28022"/>
</svg>
