<svg width="30" height="30" viewBox="0 0 30 30" fill="none" xmlns="http://www.w3.org/2000/svg">
<path fill-rule="evenodd" clip-rule="evenodd" d="M0 15C0 26.2492 3.75081 30 15 30C26.2492 30 30 26.2492 30 15C30 3.75081 26.2492 0 15 0C3.75081 0 0 3.75081 0 15Z" fill="#107E1D"/>
<path d="M21.2218 18.4817V20.5893C21.2226 20.7849 21.1846 20.9786 21.1105 21.1578C21.0363 21.3371 20.9275 21.498 20.7911 21.6303C20.6546 21.7626 20.4936 21.8633 20.3182 21.9259C20.1428 21.9886 19.9569 22.0119 19.7725 21.9943C17.7268 21.7594 15.7617 21.0207 14.0352 19.8376C12.4289 18.7589 11.0671 17.3198 10.0464 15.6224C8.92282 13.7897 8.22362 11.7031 8.0054 9.53156C7.98878 9.33729 8.01063 9.1415 8.06955 8.95664C8.12847 8.77178 8.22317 8.60191 8.34762 8.45785C8.47207 8.31378 8.62354 8.19868 8.79239 8.11986C8.96124 8.04105 9.14378 8.00025 9.32837 8.00007H11.3228C11.6454 7.99671 11.9582 8.11744 12.2028 8.33976C12.4475 8.56208 12.6073 8.87081 12.6524 9.20841C12.7366 9.88287 12.8927 10.5451 13.1178 11.1825C13.2072 11.4339 13.2266 11.7072 13.1736 11.9699C13.1205 12.2327 12.9974 12.4738 12.8186 12.6648L11.9743 13.557C12.9207 15.3158 14.2988 16.7721 15.9632 17.7721L16.8075 16.8799C16.9882 16.6911 17.2164 16.5609 17.4651 16.5049C17.7137 16.4488 17.9723 16.4693 18.2102 16.5638C18.8134 16.8016 19.4401 16.9666 20.0783 17.0556C20.4013 17.1037 20.6962 17.2756 20.907 17.5386C21.1179 17.8015 21.2299 18.1372 21.2218 18.4817Z" fill="white" stroke="white" stroke-width="1.5" stroke-linecap="round" stroke-linejoin="round"/>
</svg>
