<svg width="24" height="24" viewBox="0 0 24 24" fill="none" xmlns="http://www.w3.org/2000/svg">
<path fill-rule="evenodd" clip-rule="evenodd" d="M10.2839 4.5017C7.149 5.21619 4.74296 7.84616 4.36219 11.0952H7.51972C7.7211 8.99094 8.58803 7.13111 9.41917 5.77563C9.71707 5.28979 10.0148 4.86153 10.2839 4.5017ZM13.6364 4.484C13.9266 4.88916 14.257 5.38177 14.5878 5.93989C15.3976 7.30608 16.2587 9.14549 16.4732 11.0952H19.6378C19.2538 7.8187 16.8102 5.17177 13.6364 4.484ZM14.6501 11.0952C14.4425 9.59258 13.7605 8.09292 13.0312 6.86254C12.6547 6.22739 12.2776 5.6838 11.9727 5.27369C11.6782 5.64625 11.3198 6.13756 10.9618 6.72151C10.2313 7.91282 9.53437 9.43709 9.33945 11.0952H14.6501ZM9.36332 12.9048H14.6415C14.4248 14.3142 13.7535 15.7944 13.0271 17.0454C12.6583 17.6806 12.2888 18.2341 11.9861 18.66C11.6915 18.2357 11.3346 17.6835 10.9776 17.0536C10.2525 15.7742 9.5851 14.2744 9.36332 12.9048ZM7.53567 12.9048H4.36218C4.74689 16.1875 7.19902 18.8382 10.3815 19.5199C10.0842 19.0824 9.74372 18.5464 9.40334 17.9458C8.61578 16.5562 7.76465 14.7107 7.53567 12.9048ZM13.5892 19.5261C13.8909 19.0927 14.2412 18.5582 14.592 17.954C15.3876 16.5838 16.2435 14.7593 16.4676 12.9048H19.6378C19.2519 16.1975 16.7859 18.8544 13.5892 19.5261ZM2.5 12C2.5 6.75329 6.75329 2.5 12 2.5C17.2467 2.5 21.5 6.75329 21.5 12C21.5 17.2467 17.2467 21.5 12 21.5C6.75329 21.5 2.5 17.2467 2.5 12Z" fill="#F28022"/>
</svg>
