<svg width="24" height="24" viewBox="0 0 24 24" fill="none" xmlns="http://www.w3.org/2000/svg">
<path fill-rule="evenodd" clip-rule="evenodd" d="M8.75 6.55C8.75 5.41782 9.66782 4.5 10.8 4.5H13.2C14.3322 4.5 15.25 5.41782 15.25 6.55V7.25C15.25 7.66421 15.5858 8 16 8C16.4142 8 16.75 7.66421 16.75 7.25V6.55C16.75 4.58939 15.1606 3 13.2 3H10.8C8.83939 3 7.25 4.58939 7.25 6.55V9.47692L6.48027 9.55691C5.06688 9.70378 4 10.7855 4 12.0717V17.6581C4 18.8902 4.98124 19.9433 6.32426 20.1527L11.5243 20.9632C11.8391 21.0123 12.1609 21.0123 12.4757 20.9632L17.6757 20.1527C19.0188 19.9433 20 18.8902 20 17.6581V12.0717C20 10.7855 18.9331 9.70378 17.5197 9.55691L12.3197 9.01656C12.1073 8.99448 11.8927 8.99448 11.6803 9.01656L8.75 9.32105V6.55ZM12 12.676C10.9722 12.676 10.1389 13.5093 10.1389 14.5371C10.1389 15.2982 10.5957 15.9525 11.25 16.2409V17.8705C11.25 18.2848 11.5858 18.6205 12 18.6205C12.4142 18.6205 12.75 18.2848 12.75 17.8705V16.241C13.4044 15.9525 13.8611 15.2982 13.8611 14.5371C13.8611 13.5093 13.0279 12.676 12 12.676Z" fill="#F3C74C"/>
</svg>
