<svg width="24" height="24" viewBox="0 0 24 24" fill="none" xmlns="http://www.w3.org/2000/svg">
<path fill-rule="evenodd" clip-rule="evenodd" d="M17.7989 15.4936V15.4383V8.56169V8.50637C17.7989 8.12747 17.5058 7.80674 17.1186 7.77664L15.9522 7.68595C12.7634 7.43802 9.56004 7.43802 6.37119 7.68595L5.13207 7.78229C4.70429 7.81555 4.35836 8.13437 4.2885 8.54989L2.80877 8.30127C2.99323 7.20411 3.90344 6.37329 5.01572 6.28681L6.25484 6.19047C9.52113 5.93651 12.8023 5.93651 16.0686 6.19047L17.235 6.28115C18.4002 6.37175 19.2993 7.34098 19.2993 8.50637V8.56169V15.4383V15.4936C19.2993 16.659 18.4002 17.6283 17.235 17.7188L16.0686 17.8095C12.8023 18.0635 9.52114 18.0635 6.25484 17.8095L5.01572 17.7132C3.90344 17.6267 2.99323 16.7959 2.80877 15.6987C2.39708 13.25 2.39708 10.75 2.80877 8.30127L4.2885 8.54989C3.90448 10.834 3.90448 13.166 4.2885 15.4501C4.35836 15.8656 4.70429 16.1844 5.13207 16.2177L6.37119 16.314C9.56004 16.562 12.7634 16.562 15.9522 16.314L17.1186 16.2234C17.5058 16.1933 17.7989 15.8725 17.7989 15.4936ZM19.4994 9.2C19.4994 9.08954 19.5889 9 19.6994 9H20.4997C21.0521 9 21.5 9.44772 21.5 10V14C21.5 14.5523 21.0521 15 20.4997 15H19.6994C19.5889 15 19.4994 14.9105 19.4994 14.8V9.2ZM15.4702 15.6748C15.4616 15.8084 15.3596 15.878 15.2259 15.8861C12.6614 16.0422 10.0861 16.0378 7.522 15.873L6.5229 15.8088C5.62612 15.7511 4.89224 15.1973 4.74351 14.4658C4.41149 12.8333 4.41149 11.1667 4.74351 9.53418C4.89224 8.80274 5.62612 8.24887 6.5229 8.1912L7.522 8.12699C10.0024 7.96753 12.4935 7.95825 14.9751 8.09915C15.2349 8.11389 15.4384 8.32367 15.4426 8.58383C15.4671 10.0592 15.5364 14.6593 15.4702 15.6748ZM11.8531 11.0976C11.872 11.0498 11.8175 11.0088 11.772 11.0331C10.856 11.5215 9.63853 11.1201 9.63853 11.1201C7.85011 10.5448 7.42284 12.011 7.33126 12.5148L7.3287 12.5276C7.32369 12.5523 7.30159 12.5703 7.27643 12.5709C7.19047 12.573 7.09144 12.5662 7.00718 12.5579C6.89802 12.5471 6.81352 12.5338 6.81352 12.5338C6.7635 12.5508 6.74265 12.5523 6.73223 12.553C6.72797 12.5533 6.72545 12.5535 6.7234 12.5546C6.72047 12.5561 6.71839 12.5595 6.71339 12.5678L6.61338 12.6994C6.59372 12.732 6.77591 12.7742 6.81352 12.7806C7.09626 12.8283 7.1717 12.8549 7.21367 12.8697C7.22241 12.8728 7.2297 12.8753 7.23712 12.8775C7.27436 12.8882 7.31465 12.8882 7.55607 12.8882C8.36358 12.8514 9.58443 12.4941 11.1782 11.5628C11.1782 11.5628 9.28856 12.881 7.40367 13.0312C7.35202 13.0353 7.33627 13.1042 7.37962 13.1324C10.1376 14.9303 11.5664 11.8205 11.8531 11.0976Z" fill="#F28022"/>
</svg>
