<svg width="24" height="24" viewBox="0 0 24 24" fill="none" xmlns="http://www.w3.org/2000/svg">
<path fill-rule="evenodd" clip-rule="evenodd" d="M18.1385 17.1305C16.671 18.8845 14.4658 20 12 20C7.58172 20 4 16.4183 4 12C4 10.9974 4.18442 10.0379 4.52119 9.15361C4.64808 9.33072 4.78918 9.48918 4.92483 9.63195C5.38302 10.1143 5.88952 10.5552 6.43254 10.944L6.43289 10.9442L6.43295 10.9443L6.43296 10.9443L6.43297 10.9443C6.47321 10.9731 6.53025 11.014 6.56001 11.0407C6.58036 11.1317 6.57228 11.2625 6.56308 11.4115L6.56308 11.4115L6.56308 11.4115L6.56298 11.4131L6.56297 11.4132C6.54331 11.7304 6.51638 12.1647 6.75588 12.6217C6.91187 12.9193 7.13024 13.1485 7.32294 13.3507L7.32295 13.3507L7.32295 13.3507L7.32313 13.3509L7.32332 13.3511C7.51094 13.5479 7.67294 13.7179 7.71824 13.8828C7.75052 14.0004 7.73679 14.1733 7.72221 14.3565L7.72219 14.3567V14.3567C7.70215 14.6089 7.67944 14.8949 7.75219 15.2024C7.85 15.6159 8.08343 15.9223 8.28937 16.1926L8.28942 16.1927C8.41927 16.3631 8.54191 16.5241 8.59513 16.6715C8.63614 16.7853 8.65272 16.9386 8.6702 17.1009C8.68775 17.2636 8.70768 17.4481 8.7563 17.638C8.90199 18.2071 9.37435 18.7532 10.0117 18.7532C10.0457 18.7532 10.0802 18.7516 10.1151 18.7484C10.7752 18.6881 11.2284 18.0984 11.2978 17.2092L11.2979 17.2091C11.3091 17.065 11.3387 16.6859 11.4121 16.6023C11.4348 16.5932 11.4901 16.5797 11.5312 16.5697C11.7058 16.5269 11.9696 16.4623 12.1876 16.239C12.5891 15.8278 12.4784 15.3124 12.4122 15.0044L12.412 15.0035C12.3922 14.911 12.3697 14.8063 12.371 14.7517C12.3745 14.6049 12.6751 14.3482 12.7883 14.2515L12.7883 14.2515L13.9208 13.2842C14.3617 12.9113 14.5266 12.2628 14.3312 11.6704C14.1916 11.2475 13.8828 10.8672 13.438 10.5707C12.8892 10.2049 12.2958 10.1111 11.8103 10.3134C11.6452 10.3822 11.5118 10.4765 11.4045 10.5523L11.4045 10.5523C11.372 10.5753 11.3292 10.6055 11.2944 10.6276C11.2784 10.6098 11.26 10.5851 11.2428 10.5537C11.2021 10.4791 11.1656 10.3821 11.1268 10.2795L11.1265 10.2787L11.1265 10.2786L11.1265 10.2786C11.0753 10.1432 11.0174 9.98964 10.9316 9.83513C10.4727 9.00814 9.72303 8.91641 9.17567 8.84946C9.08212 8.83803 8.99372 8.8272 8.90559 8.81358C8.4448 8.74229 7.97603 8.53997 7.61618 8.26158C7.74807 8.21415 7.90927 8.1776 7.99604 8.18098C8.05858 8.18305 8.13184 8.19138 8.20951 8.20021L8.20952 8.20021L8.21042 8.20031C8.43393 8.2258 8.71199 8.25746 9.01168 8.17344C9.31423 8.08865 9.5373 7.91442 9.7165 7.77444L9.71826 7.77307L9.71828 7.77305L9.71835 7.773L9.71839 7.77297L9.71841 7.77295C9.76884 7.73357 9.81647 7.69638 9.86045 7.66553C9.94429 7.60669 10.1074 7.59306 10.2801 7.57863L10.2802 7.57862L10.2803 7.57861C10.7105 7.54269 11.6056 7.46795 11.7324 6.22323C11.7951 5.60737 11.5701 5.056 11.3894 4.61296L11.3894 4.61295C11.3119 4.42305 11.2356 4.23387 11.1625 4.04332C11.4377 4.01468 11.7172 4 12 4C12.9556 4 13.8721 4.16756 14.7217 4.47489C14.6191 4.58429 14.5246 4.69181 14.4449 4.79508C14.362 4.90236 14.2234 5.08186 14.1825 5.34037C14.1132 5.77892 14.3754 6.11584 14.4874 6.25968C14.6538 6.47354 14.9324 6.83149 15.3926 6.94627C15.4954 6.97188 15.5947 6.98286 15.6899 6.98286C16.0366 6.98286 16.3316 6.83765 16.5602 6.72503L16.5604 6.72494C16.692 6.66014 16.8281 6.59314 16.9094 6.58661C16.9863 6.58032 17.1214 6.6246 17.2529 6.66767L17.2562 6.66877C17.4497 6.73223 17.669 6.80407 17.9273 6.81346C17.9817 6.81541 18.0351 6.81389 18.0874 6.80902C18.5879 7.39545 19.0052 8.0551 19.321 8.76966C19.0831 8.74654 18.8665 8.66627 18.6094 8.571L18.6091 8.57086C18.3735 8.48357 18.1065 8.38464 17.7935 8.32244C16.9496 8.15474 16.0839 8.61482 15.5881 9.49461C15.4437 9.75081 14.7532 11.0699 15.3408 11.8793C15.561 12.1827 15.8558 12.3593 16.0926 12.5012L16.0927 12.5013C16.4105 12.6918 16.739 12.8887 17.1113 13.0389C17.1905 13.0709 17.269 13.0999 17.3449 13.1278C17.5707 13.2112 17.8042 13.2974 17.8876 13.4117C17.9344 13.4758 17.9833 13.6201 17.95 13.9433C17.9277 14.1596 17.8412 14.3955 17.7495 14.6454L17.7495 14.6454C17.5238 15.2609 17.2147 16.1039 17.9391 16.9316C18.0018 17.0032 18.0684 17.0696 18.1385 17.1305ZM21.5 12C21.5 17.2467 17.2467 21.5 12 21.5C6.75329 21.5 2.5 17.2467 2.5 12C2.5 6.75329 6.75329 2.5 12 2.5C17.2467 2.5 21.5 6.75329 21.5 12Z" fill="#F3C74C"/>
</svg>
