<svg width="24" height="24" viewBox="0 0 24 24" fill="none" xmlns="http://www.w3.org/2000/svg">
    <path fill-rule="evenodd" clip-rule="evenodd" d="M3.25 6.35274C3.25 4.59034 4.76643 3.25 6.52415 3.25H17.6447C19.3092 3.25 20.75 4.51986 20.75 6.19532C20.75 7.1206 20.2938 7.97675 19.543 8.52663L14.4387 12.2648C13.9767 12.6032 13.7091 13.0971 13.6784 13.6118L13.3605 18.9465C13.2721 20.4301 11.6146 21.1558 10.3974 20.5075L9.52242 20.0415C8.75362 19.632 8.25 18.8508 8.25 17.9741V13.3978C8.25 12.9515 8.07196 12.5115 7.73492 12.1659L4.11952 8.45903C3.56562 7.89112 3.25 7.14089 3.25 6.35274Z" fill="#A49F9B"/>
</svg>
