<svg width="25" height="24" viewBox="0 0 25 24" fill="none" xmlns="http://www.w3.org/2000/svg">
    <path fill-rule="evenodd" clip-rule="evenodd" d="M11 2C9.48122 2 8.25 3.23122 8.25 4.75C8.25 5.7165 9.0335 6.5 10 6.5H15C15.9665 6.5 16.75 5.7165 16.75 4.75C16.75 3.23122 15.5188 2 14 2H11ZM9.75 4.75C9.75 4.05964 10.3096 3.5 11 3.5H14C14.6904 3.5 15.25 4.05964 15.25 4.75C15.25 4.88807 15.1381 5 15 5H10C9.86193 5 9.75 4.88807 9.75 4.75ZM7.25 4.75001C7.25 4.56298 7.26369 4.37915 7.29013 4.19946C5.81271 4.70276 4.75 6.10228 4.75 7.75001V17.75C4.75 19.8211 6.42893 21.5 8.5 21.5H16.5C18.5711 21.5 20.25 19.8211 20.25 17.75V7.75001C20.25 6.10228 19.1873 4.70276 17.7099 4.19947C17.7363 4.37915 17.75 4.56298 17.75 4.75001C17.75 6.26879 16.5188 7.50001 15 7.50001H10C8.48122 7.50001 7.25 6.26879 7.25 4.75001ZM9.5 10C9.08579 10 8.75 10.3358 8.75 10.75C8.75 11.1642 9.08579 11.5 9.5 11.5H15.5C15.9142 11.5 16.25 11.1642 16.25 10.75C16.25 10.3358 15.9142 10 15.5 10H9.5ZM8.75 13.75C8.75 13.3358 9.08579 13 9.5 13H14.5C14.9142 13 15.25 13.3358 15.25 13.75C15.25 14.1642 14.9142 14.5 14.5 14.5H9.5C9.08579 14.5 8.75 14.1642 8.75 13.75Z" fill="#F28022"/>
</svg>
