<svg width="25" height="24" viewBox="0 0 25 24" fill="none" xmlns="http://www.w3.org/2000/svg">
<path d="M17.8333 9.6C17.8333 8.11479 17.2714 6.69041 16.2712 5.6402C15.271 4.59 13.9145 4 12.5 4C11.0855 4 9.72896 4.59 8.72876 5.6402C7.72857 6.69041 7.16667 8.11479 7.16667 9.6C7.16667 16.1333 4.5 18 4.5 18H20.5C20.5 18 17.8333 16.1333 17.8333 9.6Z" stroke="#A49F9B" stroke-width="1.5" stroke-linecap="round" stroke-linejoin="round"/>
<path d="M14.25 20C14.0722 20.3031 13.8169 20.5547 13.5098 20.7295C13.2026 20.9044 12.8544 20.9965 12.5 20.9965C12.1456 20.9965 11.7974 20.9044 11.4902 20.7295C11.1831 20.5547 10.9278 20.3031 10.75 20" stroke="#A49F9B" stroke-width="1.5" stroke-linecap="round" stroke-linejoin="round"/>
</svg>
