<svg width="25" height="24" viewBox="0 0 25 24" fill="none" xmlns="http://www.w3.org/2000/svg">
<path d="M3.5 11.5V8C3.5 6.89543 4.39543 6 5.5 6H7H7.875M17.5 8.75V8C17.5 6.89543 16.6046 6 15.5 6H14" stroke="#A49F9B" stroke-width="1.5"/>
<path d="M6.5 8.5L7.88604 4.34189C7.9541 4.13771 8.14516 4 8.36038 4H13.8371C14.1693 4 14.4092 4.31795 14.3179 4.63736L13.5 7.5L13 9" stroke="#A49F9B" stroke-width="1.5" stroke-linecap="round"/>
<path d="M15.3125 20H5.5C4.39543 20 3.5 19.1046 3.5 18V11C3.5 9.89543 4.39543 9 5.5 9H19.5C20.6046 9 21.5 9.89543 21.5 11V18C21.5 19.1046 20.6046 20 19.5 20H16.4509H14.9903" stroke="#A49F9B" stroke-width="1.5"/>
<path d="M3.5 13H6C6.82843 13 7.5 13.6716 7.5 14.5V14.5C7.5 15.3284 6.82843 16 6 16H3.5V13Z" stroke="#A49F9B" stroke-width="1.5"/>
</svg>
