<svg width="40" height="40" viewBox="0 0 40 40" fill="none" xmlns="http://www.w3.org/2000/svg">
<path fill-rule="evenodd" clip-rule="evenodd" d="M0 20C0 34.9989 5.00108 40 20 40C34.9989 40 40 34.9989 40 20C40 5.00108 34.9989 0 20 0C5.00108 0 0 5.00108 0 20Z" fill="#FFF6DD"/>
<path d="M27.0842 16.662L18.8809 14.2383V21.323L20.9317 20.9501L27.0842 16.662Z" fill="#C07D00"/>
<path d="M18.8811 14.2383L12.7285 16.662L18.8811 20.9501V14.2383Z" fill="#C07D00"/>
<circle cx="19.6269" cy="16.4746" r="4.47458" fill="#101010"/>
<path d="M12.7285 26.5415V16.6602L19.6268 19.8296V29.711L12.7285 26.5415Z" fill="#F3C74C"/>
<path d="M27.084 26.5418V16.6602L19.6264 19.83V29.7113L27.084 26.5418Z" fill="#FFDD80"/>
<path d="M9 20.389L12.7288 16.6602L19.6271 19.8296L16.2712 23.5585L9 20.389Z" fill="#FFDF85"/>
<path d="M30.9998 20.5754L27.0846 16.6602L19.627 19.8296L23.3558 23.7449L30.9998 20.5754Z" fill="#FFE6A2"/>
</svg>
