<svg width="40" height="40" viewBox="0 0 40 40" fill="none" xmlns="http://www.w3.org/2000/svg">
<path fill-rule="evenodd" clip-rule="evenodd" d="M0 20C0 34.9989 5.00108 40 20 40C34.9989 40 40 34.9989 40 20C40 5.00108 34.9989 0 20 0C5.00108 0 0 5.00108 0 20Z" fill="#FFF1E5"/>
<path d="M27.0847 16.661L18.8813 14.2373V21.322L20.9322 20.9492L27.0847 16.661Z" fill="#C27534"/>
<path d="M18.8813 14.2373L12.7288 16.661L18.8813 20.9492V14.2373Z" fill="#C27534"/>
<circle cx="19.6272" cy="16.4746" r="4.47458" fill="#101010"/>
<path d="M12.7288 26.5425V16.6611L19.6271 19.8306V29.712L12.7288 26.5425Z" fill="#F68C34"/>
<path d="M27.0847 26.5428V16.6611L19.6271 19.8309V29.7123L27.0847 26.5428Z" fill="#F5A25E"/>
<path d="M9 20.3899L12.7288 16.6611L19.6271 19.8306L16.2712 23.5594L9 20.3899Z" fill="#FFCDA3"/>
<path d="M31.0001 20.5764L27.0848 16.6611L19.6272 19.8306L23.356 23.7459L31.0001 20.5764Z" fill="#FFB87C"/>
</svg>
