<svg width="40" height="40" viewBox="0 0 40 40" fill="none" xmlns="http://www.w3.org/2000/svg">
<path fill-rule="evenodd" clip-rule="evenodd" d="M0 20C0 34.9989 5.00108 40 20 40C34.9989 40 40 34.9989 40 20C40 5.00108 34.9989 0 20 0C5.00108 0 0 5.00108 0 20Z" fill="#FFF1E5"/>
<path d="M11 16.4209L18.165 19.6097V30.2391L11 27.0503V16.4209Z" fill="#F68C34"/>
<path d="M18.165 19.6097L25.8418 16.4209V27.0503L18.165 30.2391V19.6097Z" fill="#F5A25E"/>
<path d="M11 16.4209L18.165 13.862L25.8418 16.4209L18.165 19.7475L11 16.4209Z" fill="#FFB87C"/>
<ellipse cx="24.818" cy="25.4094" rx="5.18182" ry="5.18182" fill="#101010"/>
<path fill-rule="evenodd" clip-rule="evenodd" d="M27.8147 23.5247C28.0784 23.7665 28.0962 24.1762 27.8545 24.4399L25.0397 27.5106C24.917 27.6445 24.7438 27.7207 24.5622 27.7207C24.3806 27.7207 24.2074 27.6445 24.0847 27.5106L22.8053 26.1148C22.5635 25.8511 22.5814 25.4414 22.8451 25.1997C23.1088 24.958 23.5185 24.9758 23.7602 25.2395L24.5622 26.1144L26.8995 23.5645C27.1413 23.3008 27.551 23.283 27.8147 23.5247Z" fill="white"/>
</svg>
