<svg width="40" height="40" viewBox="0 0 40 40" fill="none" xmlns="http://www.w3.org/2000/svg">
<path fill-rule="evenodd" clip-rule="evenodd" d="M0 20C0 34.9989 5.00108 40 20 40C34.9989 40 40 34.9989 40 20C40 5.00108 34.9989 0 20 0C5.00108 0 0 5.00108 0 20Z" fill="#FFF6DD"/>
<path d="M20.3022 14H25.9491C26.5495 14 27.041 14.4615 27.041 15.0256V16.0513H20.3022V14Z" fill="#FFD970"/>
<path d="M6.999 15.092V24.5294C6.999 25.1301 7.48496 25.6214 8.07737 25.6214H21.2383V15.092C21.2383 14.4913 20.747 14 20.1464 14H8.09091C7.49041 14 6.999 14.4913 6.999 15.092Z" fill="#E8BD45"/>
<path d="M6.999 22.793V24.5295C6.999 25.1302 7.48496 25.6214 8.07737 25.6214H21.2383V22.793H6.999Z" fill="#A36B02"/>
<path d="M26.2204 25.622H31.906C32.5066 25.622 32.998 25.1306 32.998 24.53V22.4949C32.998 21.8941 32.7803 20.9622 32.5153 20.4234L30.8439 17.0305C30.5778 16.4919 29.8699 16.0508 29.2691 16.0508H23.2906V25.622H26.2204Z" fill="#F2C032"/>
<path d="M27.0971 25.6211C27.0971 26.713 27.7381 27.2591 28.5329 27.2591C29.3245 27.2591 29.9688 26.713 29.9688 25.6211H27.0971Z" fill="#101010"/>
<path d="M33 24.2597C32.3753 24.2597 32.063 23.8917 32.063 23.4382C32.063 22.9846 32.3753 22.6172 33 22.6172V24.2597Z" fill="white"/>
<path d="M27.0393 24.1972C27.664 24.1972 27.9766 23.8292 27.9766 23.3757C27.9766 22.9221 27.664 22.5547 27.0393 22.5547V24.1972Z" fill="white"/>
<path d="M29.967 25.6211C29.967 26.713 29.3241 27.2591 28.5313 27.2591L29.5774 27.2326C30.3703 27.2326 30.9336 26.7125 30.9336 25.6211H29.967Z" fill="#383636"/>
<path d="M25.092 25.6211C25.092 26.713 24.4495 27.2591 23.6566 27.2591L24.7027 27.2326C25.4955 27.2326 26.0586 26.7125 26.0586 25.6211H25.092Z" fill="#383636"/>
<path d="M16.8984 25.6211C16.8984 26.713 16.2556 27.2591 15.4628 27.2591C14.67 27.2591 14.0271 26.713 14.0271 25.6211H16.8984Z" fill="#101010"/>
<path d="M16.8967 25.6211C16.8967 26.713 16.2538 27.2591 15.461 27.2591L16.5071 27.2326C17.3002 27.2326 17.8633 26.7125 17.8633 25.6211H16.8967Z" fill="#383636"/>
<path d="M10.5856 23.9844C11.3784 23.9844 12.0215 24.5305 12.0215 25.6224C12.0215 26.7143 11.3784 27.2604 10.5856 27.2604C9.79278 27.2604 9.15031 26.7143 9.15031 25.6224C9.15031 24.5305 9.79266 23.9844 10.5856 23.9844Z" fill="#101010"/>
<path opacity="0.8" d="M10.5868 26.7151C11.1522 26.7151 11.4766 26.317 11.4766 25.6232C11.4766 24.9293 11.1522 24.5312 10.5868 24.5312C10.0213 24.5312 9.69731 24.9292 9.69731 25.6232C9.69731 26.3172 10.0216 26.7151 10.5868 26.7151Z" fill="white"/>
<path d="M12.0217 25.6211C12.0217 26.713 11.3786 27.2591 10.5858 27.2591L11.6319 27.2326C12.4249 27.2326 12.9883 26.7125 12.9883 25.6211H12.0217Z" fill="#383636"/>
<path d="M21.2399 16.0508H23.3124C23.9128 16.0508 24.6215 16.4916 24.8871 17.0305L26.5584 20.4232C26.8245 20.962 27.041 21.8939 27.041 22.4945V24.5298C27.0402 24.8192 26.9249 25.0965 26.7203 25.3011C26.5157 25.5057 26.2384 25.621 25.949 25.6217H21.2399V16.0508Z" fill="#CF9A36"/>
<path d="M23.6564 23.9844C24.4493 23.9844 25.0918 24.5305 25.0918 25.6224C25.0918 26.7143 24.4493 27.2604 23.6564 27.2604C22.8635 27.2604 22.2206 26.7143 22.2206 25.6224C22.2206 24.5305 22.8633 23.9844 23.6564 23.9844Z" fill="#101010"/>
<path opacity="0.8" d="M23.6535 26.7151C24.2187 26.7151 24.543 26.317 24.543 25.6232C24.543 24.9293 24.2187 24.5312 23.6535 24.5312C23.0883 24.5312 22.7637 24.9292 22.7637 25.6232C22.7637 26.3172 23.0881 26.7151 23.6535 26.7151Z" fill="white"/>
<path opacity="0.8" d="M27.642 25.6211C27.642 26.3173 27.9668 26.713 28.5319 26.713C29.0971 26.713 29.4219 26.3173 29.4219 25.6211H27.642Z" fill="#E9ECFE"/>
<path opacity="0.8" d="M14.5695 25.6211C14.5695 26.3173 14.8946 26.713 15.4594 26.713C16.0243 26.713 16.3496 26.3173 16.3496 25.6211H14.5695Z" fill="white"/>
<path opacity="0.8" d="M31.5979 20.2754C31.8981 20.2754 32.0351 20.0552 31.9025 19.7857L30.787 17.521C30.6539 17.2517 30.2998 17.0312 29.9996 17.0312H25.7309C25.4304 17.0312 25.2935 17.2517 25.426 17.521L26.5418 19.7857C26.6749 20.0552 27.0286 20.2754 27.3288 20.2754H31.5979Z" fill="white"/>
<path opacity="0.8" d="M25.5412 20.2754C25.8414 20.2754 25.9784 20.0552 25.846 19.7857L24.7303 17.521C24.5973 17.2517 24.2434 17.0312 23.9431 17.0312H22.3318C22.1872 17.0318 22.0487 17.0895 21.9466 17.1918C21.8444 17.2941 21.7868 17.4326 21.7864 17.5772V19.7301C21.7867 19.8748 21.8444 20.0134 21.9467 20.1157C22.049 20.218 22.1876 20.2756 22.3323 20.276L25.5412 20.2754Z" fill="white"/>
<path d="M32.1445 25.5965L31.5958 24.6343C31.4467 24.3736 31.0793 24.1602 30.779 24.1602H29.3491C29.0488 24.1602 28.6814 24.3736 28.5326 24.6343L27.9837 25.5965H32.1445Z" fill="#474545"/>
<path d="M18.6348 21.0529C18.6353 21.1976 18.693 21.3362 18.7953 21.4385C18.8976 21.5408 19.0362 21.5985 19.1809 21.5989H19.3857C19.5303 21.5984 19.6689 21.5408 19.7712 21.4385C19.8735 21.3362 19.9312 21.1976 19.9316 21.0529V16.2414C19.9312 16.0967 19.8735 15.9581 19.7712 15.8558C19.6689 15.7535 19.5303 15.6958 19.3857 15.6953H19.1809C19.0362 15.6958 18.8976 15.7535 18.7953 15.8558C18.693 15.9581 18.6353 16.0967 18.6348 16.2414V21.0529Z" fill="#E9ECFE"/>
<path d="M15.2229 21.0529C15.2233 21.1976 15.2809 21.3362 15.3832 21.4385C15.4855 21.5408 15.6241 21.5985 15.7688 21.5989H15.9737C16.1183 21.5984 16.2569 21.5408 16.3592 21.4385C16.4615 21.3362 16.5191 21.1976 16.5195 21.0529V16.2414C16.5191 16.0967 16.4614 15.9581 16.3592 15.8558C16.2569 15.7535 16.1183 15.6958 15.9737 15.6953H15.7688C15.6241 15.6958 15.4855 15.7535 15.3832 15.8558C15.281 15.9581 15.2233 16.0967 15.2229 16.2414V21.0529Z" fill="#E9ECFE"/>
<path d="M11.8107 21.0529C11.8111 21.1976 11.8688 21.3362 11.9711 21.4385C12.0734 21.5408 12.212 21.5985 12.3567 21.5989H12.5613C12.706 21.5985 12.8447 21.5408 12.947 21.4385C13.0493 21.3362 13.107 21.1976 13.1074 21.0529V16.2414C13.1069 16.0967 13.0493 15.9581 12.9469 15.8558C12.8446 15.7535 12.706 15.6958 12.5613 15.6953H12.3567C12.212 15.6958 12.0734 15.7535 11.9711 15.8558C11.8688 15.9581 11.8112 16.0967 11.8107 16.2414V21.0529Z" fill="#E9ECFE"/>
<path d="M8.40059 21.0529C8.40103 21.1976 8.4587 21.3362 8.56099 21.4385C8.66328 21.5408 8.80188 21.5984 8.94654 21.5989H9.15143C9.29608 21.5984 9.43467 21.5408 9.53694 21.4385C9.63921 21.3362 9.69685 21.1976 9.69727 21.0529V16.2414C9.69682 16.0967 9.63918 15.9581 9.53692 15.8558C9.43466 15.7535 9.29608 15.6958 9.15143 15.6953H8.94654C8.80188 15.6958 8.66329 15.7535 8.56101 15.8558C8.45873 15.9581 8.40106 16.0967 8.40059 16.2414V21.0529Z" fill="#E9ECFE"/>
<path d="M25.9375 20.5263V19.6359C25.9371 19.4912 25.8795 19.3526 25.7772 19.2503C25.6749 19.1479 25.5362 19.0903 25.3915 19.0898H25.3655C25.2209 19.0903 25.0822 19.148 24.9799 19.2503C24.8776 19.3526 24.82 19.4912 24.8196 19.6359V19.9804C24.82 20.125 24.8777 20.2636 24.98 20.3659C25.0823 20.4682 25.2209 20.5259 25.3655 20.5263H25.9375Z" fill="#101010"/>
</svg>
