<svg width="40" height="40" viewBox="0 0 40 40" fill="none" xmlns="http://www.w3.org/2000/svg">
    <path fill-rule="evenodd" clip-rule="evenodd" d="M0 20C0 34.9989 5.00108 40 20 40C34.9989 40 40 34.9989 40 20C40 5.00108 34.9989 0 20 0C5.00108 0 0 5.00108 0 20Z" fill="#FFF1E5"/>
    <path d="M20.3012 14H25.9481C26.5485 14 27.04 14.4615 27.04 15.0256V16.0513H20.3012V14Z" fill="#FFB070"/>
    <path d="M6.99997 15.092V24.5294C6.99997 25.1301 7.48594 25.6214 8.07834 25.6214H21.2393V15.092C21.2393 14.4913 20.748 14 20.1473 14H8.09189C7.49139 14 6.99997 14.4913 6.99997 15.092Z" fill="#E88330"/>
    <path d="M6.99997 22.793V24.5295C6.99997 25.1302 7.48594 25.6214 8.07834 25.6214H21.2393V22.793H6.99997Z" fill="#BA651F"/>
    <path d="M26.2206 25.622H31.9063C32.5069 25.622 32.9983 25.1306 32.9983 24.53V22.4949C32.9983 21.8941 32.7806 20.9622 32.5156 20.4234L30.8441 17.0305C30.578 16.4919 29.8701 16.0508 29.2694 16.0508H23.2908V25.622H26.2206Z" fill="#FF9B48"/>
    <path d="M27.0968 25.6221C27.0968 26.714 27.7379 27.2601 28.5326 27.2601C29.3242 27.2601 29.9685 26.714 29.9685 25.6221H27.0968Z" fill="#101010"/>
    <path d="M33 24.2616C32.3753 24.2616 32.063 23.8937 32.063 23.4401C32.063 22.9866 32.3753 22.6191 33 22.6191V24.2616Z" fill="white"/>
    <path d="M27.0391 24.1972C27.6638 24.1972 27.9763 23.8292 27.9763 23.3757C27.9763 22.9221 27.6638 22.5547 27.0391 22.5547V24.1972Z" fill="white"/>
    <path d="M29.9667 25.6221C29.9667 26.714 29.3239 27.2601 28.5311 27.2601L29.5772 27.2336C30.3701 27.2336 30.9333 26.7135 30.9333 25.6221H29.9667Z" fill="#383636"/>
    <path d="M25.0917 25.6221C25.0917 26.714 24.4493 27.2601 23.6563 27.2601L24.7024 27.2336C25.4952 27.2336 26.0583 26.7135 26.0583 25.6221H25.0917Z" fill="#383636"/>
    <path d="M16.8979 25.6221C16.8979 26.714 16.2551 27.2601 15.4623 27.2601C14.6695 27.2601 14.0267 26.714 14.0267 25.6221H16.8979Z" fill="#101010"/>
    <path d="M16.8962 25.6221C16.8962 26.714 16.2534 27.2601 15.4605 27.2601L16.5066 27.2336C17.2997 27.2336 17.8628 26.7135 17.8628 25.6221H16.8962Z" fill="#383636"/>
    <path d="M10.5853 23.9844C11.3782 23.9844 12.0212 24.5305 12.0212 25.6224C12.0212 26.7143 11.3782 27.2604 10.5853 27.2604C9.79254 27.2604 9.15007 26.7143 9.15007 25.6224C9.15007 24.5305 9.79242 23.9844 10.5853 23.9844Z" fill="#101010"/>
    <path opacity="0.8" d="M10.5863 26.7141C11.1517 26.7141 11.4761 26.3161 11.4761 25.6222C11.4761 24.9283 11.1517 24.5303 10.5863 24.5303C10.0208 24.5303 9.69682 24.9282 9.69682 25.6222C9.69682 26.3162 10.0211 26.7141 10.5863 26.7141Z" fill="white"/>
    <path d="M12.0212 25.6221C12.0212 26.714 11.3781 27.2601 10.5853 27.2601L11.6314 27.2336C12.4244 27.2336 12.9878 26.7135 12.9878 25.6221H12.0212Z" fill="#383636"/>
    <path d="M21.2389 16.0518H23.3115C23.9119 16.0518 24.6205 16.4926 24.8861 17.0314L26.5575 20.4241C26.8235 20.963 27.04 21.8949 27.04 22.4955V24.5308C27.0392 24.8202 26.9239 25.0974 26.7193 25.302C26.5147 25.5067 26.2374 25.6219 25.948 25.6227H21.2389V16.0518Z" fill="#DF9456"/>
    <path d="M23.6564 23.9844C24.4493 23.9844 25.0918 24.5305 25.0918 25.6224C25.0918 26.7143 24.4493 27.2604 23.6564 27.2604C22.8635 27.2604 22.2206 26.7143 22.2206 25.6224C22.2206 24.5305 22.8633 23.9844 23.6564 23.9844Z" fill="#101010"/>
    <path opacity="0.8" d="M23.654 26.7141C24.2192 26.7141 24.5435 26.3161 24.5435 25.6222C24.5435 24.9283 24.2192 24.5303 23.654 24.5303C23.0888 24.5303 22.7642 24.9282 22.7642 25.6222C22.7642 26.3162 23.0886 26.7141 23.654 26.7141Z" fill="white"/>
    <path opacity="0.8" d="M27.6418 25.6221C27.6418 26.3182 27.9665 26.714 28.5317 26.714C29.0969 26.714 29.4216 26.3182 29.4216 25.6221H27.6418Z" fill="#E9ECFE"/>
    <path opacity="0.8" d="M14.5693 25.6221C14.5693 26.3182 14.8944 26.714 15.4592 26.714C16.024 26.714 16.3494 26.3182 16.3494 25.6221H14.5693Z" fill="white"/>
    <path opacity="0.8" d="M31.5986 20.2754C31.8988 20.2754 32.0359 20.0552 31.9032 19.7857L30.7877 17.521C30.6547 17.2517 30.3005 17.0312 30.0003 17.0312H25.7316C25.4312 17.0312 25.2943 17.2517 25.4267 17.521L26.5426 19.7857C26.6756 20.0552 27.0294 20.2754 27.3296 20.2754H31.5986Z" fill="white"/>
    <path opacity="0.8" d="M25.5404 20.2754C25.8406 20.2754 25.9777 20.0552 25.8452 19.7857L24.7296 17.521C24.5966 17.2517 24.2427 17.0312 23.9424 17.0312H22.3311C22.1865 17.0318 22.048 17.0895 21.9458 17.1918C21.8436 17.2941 21.786 17.4326 21.7856 17.5772V19.7301C21.786 19.8748 21.8437 20.0134 21.946 20.1157C22.0483 20.218 22.1869 20.2756 22.3316 20.276L25.5404 20.2754Z" fill="white"/>
    <path d="M32.1453 25.5956L31.5965 24.6333C31.4474 24.3727 31.0801 24.1592 30.7798 24.1592H29.3498C29.0495 24.1592 28.6822 24.3727 28.5333 24.6333L27.9844 25.5956H32.1453Z" fill="#474545"/>
    <path d="M18.6343 21.0529C18.6348 21.1976 18.6925 21.3362 18.7948 21.4385C18.8971 21.5408 19.0357 21.5985 19.1804 21.5989H19.3852C19.5298 21.5984 19.6685 21.5408 19.7708 21.4385C19.873 21.3362 19.9307 21.1976 19.9312 21.0529V16.2414C19.9307 16.0967 19.873 15.9581 19.7707 15.8558C19.6684 15.7535 19.5299 15.6958 19.3852 15.6953H19.1804C19.0357 15.6958 18.8971 15.7535 18.7948 15.8558C18.6925 15.9581 18.6348 16.0967 18.6343 16.2414V21.0529Z" fill="#E9ECFE"/>
    <path d="M15.2238 21.0529C15.2242 21.1976 15.2819 21.3362 15.3842 21.4385C15.4865 21.5408 15.6251 21.5985 15.7698 21.5989H15.9747C16.1193 21.5984 16.2579 21.5408 16.3602 21.4385C16.4625 21.3362 16.5201 21.1976 16.5205 21.0529V16.2414C16.5201 16.0967 16.4624 15.9581 16.3602 15.8558C16.2579 15.7535 16.1193 15.6958 15.9747 15.6953H15.7698C15.6251 15.6958 15.4865 15.7535 15.3842 15.8558C15.2819 15.9581 15.2243 16.0967 15.2238 16.2414V21.0529Z" fill="#E9ECFE"/>
    <path d="M11.8115 21.0529C11.8119 21.1976 11.8695 21.3362 11.9718 21.4385C12.0741 21.5408 12.2128 21.5985 12.3574 21.5989H12.5621C12.7068 21.5985 12.8454 21.5408 12.9477 21.4385C13.05 21.3362 13.1077 21.1976 13.1082 21.0529V16.2414C13.1077 16.0967 13.05 15.9581 12.9477 15.8558C12.8454 15.7535 12.7068 15.6958 12.5621 15.6953H12.3574C12.2128 15.6958 12.0741 15.7535 11.9719 15.8558C11.8696 15.9581 11.8119 16.0967 11.8115 16.2414V21.0529Z" fill="#E9ECFE"/>
    <path d="M8.40083 21.0529C8.40128 21.1976 8.45894 21.3362 8.56123 21.4385C8.66352 21.5408 8.80213 21.5984 8.94679 21.5989H9.15167C9.29632 21.5984 9.43492 21.5408 9.53719 21.4385C9.63946 21.3362 9.6971 21.1976 9.69751 21.0529V16.2414C9.69706 16.0967 9.63942 15.9581 9.53716 15.8558C9.4349 15.7535 9.29632 15.6958 9.15167 15.6953H8.94679C8.80213 15.6958 8.66354 15.7535 8.56126 15.8558C8.45898 15.9581 8.40131 16.0967 8.40083 16.2414V21.0529Z" fill="#E9ECFE"/>
    <path d="M25.9382 20.5273V19.6369C25.9378 19.4922 25.8802 19.3536 25.7779 19.2512C25.6756 19.1489 25.537 19.0912 25.3923 19.0908H25.3663C25.2216 19.0913 25.083 19.1489 24.9807 19.2513C24.8784 19.3536 24.8207 19.4922 24.8203 19.6369V19.9814C24.8208 20.126 24.8784 20.2646 24.9807 20.3669C25.083 20.4692 25.2216 20.5269 25.3663 20.5273H25.9382Z" fill="#101010"/>
</svg>
