<svg width="40" height="40" viewBox="0 0 40 40" fill="none" xmlns="http://www.w3.org/2000/svg">
<path fill-rule="evenodd" clip-rule="evenodd" d="M0 20C0 34.9989 5.00108 40 20 40C34.9989 40 40 34.9989 40 20C40 5.00108 34.9989 0 20 0C5.00108 0 0 5.00108 0 20Z" fill="#FFF6DD"/>
<path d="M11 16.4219L18.165 19.6107V30.2401L11 27.0512V16.4219Z" fill="#F3C74C"/>
<path d="M18.1641 19.6107L25.8408 16.4219V27.0512L18.1641 30.2401V19.6107Z" fill="#FFDD80"/>
<path d="M11 16.4219L18.165 13.863L25.8418 16.4219L18.165 19.7485L11 16.4219Z" fill="#FFE6A2"/>
<ellipse cx="24.8185" cy="25.4084" rx="5.18182" ry="5.18182" fill="#101010"/>
<path fill-rule="evenodd" clip-rule="evenodd" d="M27.8145 23.5257C28.0782 23.7675 28.096 24.1772 27.8542 24.4409L25.0394 27.5116C24.9167 27.6454 24.7435 27.7216 24.562 27.7216C24.3804 27.7216 24.2072 27.6454 24.0845 27.5116L22.805 26.1158C22.5633 25.8521 22.5811 25.4424 22.8448 25.2007C23.1085 24.9589 23.5182 24.9767 23.76 25.2404L24.562 26.1153L26.8993 23.5655C27.141 23.3018 27.5508 23.284 27.8145 23.5257Z" fill="white"/>
</svg>
